<?xml version="1.0" encoding="utf-8"?>
<!-- Generator: Adobe Illustrator 16.0.0, SVG Export Plug-In . SVG Version: 6.00 Build 0)  -->
<!DOCTYPE svg PUBLIC "-//W3C//DTD SVG 1.1//EN" "http://www.w3.org/Graphics/SVG/1.1/DTD/svg11.dtd">
<svg version="1.1" id="Layer_1" xmlns="http://www.w3.org/2000/svg" xmlns:xlink="http://www.w3.org/1999/xlink" x="0px" y="0px"
	 width="128px" height="128px" viewBox="0 0 128 128" enable-background="new 0 0 128 128" xml:space="preserve">
<g>
	<path fill="#64B631" d="M127,95.44c0,17.372-14.187,31.56-31.554,31.56H32.556C15.183,127,1,112.812,1,95.44V32.553
		C1,15.183,15.183,1,32.556,1h62.891C112.813,1,127,15.183,127,32.553V95.44z"/>
	<path fill="#FFFFFF" d="M34.904,88.53l23.618-53.094C31.268,46.782,23.739,64.593,34.904,88.53"/>
	<path fill="#FFFFFF" d="M84.387,30.455C66.554,50.087,51.21,71.17,40.342,94.858c1.089,1.349,2.401,2.543,3.872,3.579
		c9.668,6.794,26.541,6.812,37.356-2.045c11.933-10.358,15.709-33.394,16.387-61.254c0.05-2.235,0.088-4.501,0.11-6.796
		C97.797,22.484,89.091,24.032,84.387,30.455"/>
	<g>
		<path fill="none" stroke="#333333" stroke-width="2" stroke-linecap="round" stroke-linejoin="round" stroke-miterlimit="10" d="
			M95.44,1H32.546C15.182,1,1,15.183,1,32.554v62.894C1,112.812,15.182,127,32.546,127H95.44c17.372,0,31.56-14.188,31.56-31.553
			V32.554C127,15.183,112.812,1,95.44,1z"/>
		<path fill="none" stroke="#333333" stroke-width="2" stroke-linecap="round" stroke-linejoin="round" stroke-miterlimit="10" d="
			M93,7H34.77C19.617,7,7,19.616,7,34.77v58.46C7,108.382,19.617,121,34.77,121H93.23c15.152,0,27.77-12.618,27.77-27.771V65"/>
		<path fill="none" stroke="#333333" stroke-width="2" stroke-linecap="round" stroke-linejoin="round" stroke-miterlimit="10" d="
			M91.75,7c7.576,0,15.916,3.402,20.881,8.368"/>
		
			<line fill="none" stroke="#333333" stroke-width="2" stroke-linecap="round" stroke-linejoin="round" stroke-miterlimit="10" x1="121" y1="58" x2="121" y2="43"/>
	</g>
	<path fill="none" stroke="#333333" stroke-width="2" stroke-linecap="round" stroke-linejoin="round" stroke-miterlimit="10" d="
		M45.755,64L34.843,88.53c-11.165-23.938-3.637-41.748,23.618-53.094 M97.896,35.139c-0.678,27.86-4.454,50.896-16.387,61.254
		c-10.815,8.856-27.688,8.839-37.356,2.045c-1.471-1.036-2.783-2.23-3.872-3.579C51.148,71.17,66.492,50.087,84.325,30.455
		c4.704-6.423,13.41-7.971,13.681-2.112C97.983,30.638,97.945,32.903,97.896,35.139z"/>
</g>
</svg>
