<?xml version="1.0" encoding="utf-8"?>
<!-- Generator: Adobe Illustrator 16.0.0, SVG Export Plug-In . SVG Version: 6.00 Build 0)  -->
<!DOCTYPE svg PUBLIC "-//W3C//DTD SVG 1.1//EN" "http://www.w3.org/Graphics/SVG/1.1/DTD/svg11.dtd">
<svg version="1.1" id="Layer_1" xmlns="http://www.w3.org/2000/svg" xmlns:xlink="http://www.w3.org/1999/xlink" x="0px" y="0px"
	 width="24px" height="24px" viewBox="0 0 24 24" enable-background="new 0 0 24 24" xml:space="preserve">
<path d="M13.5,22.2L1.6,13.5h12c0.2,0,0.4-0.1,0.5-0.3l3.7-11.4l4.6,14H19l-1.2-3.7c-0.1-0.2-0.3-0.3-0.5-0.3s-0.4,0.1-0.5,0.3
	l-1.2,3.7h-3.9c-0.2,0-0.4,0.1-0.5,0.3s0,0.4,0.2,0.6l3.2,2.3L13.5,22.2z M19.1,18.4c-0.2,0.1-0.2,0.4-0.2,0.6l0.8,2.6L17.6,20
	c-0.1-0.1-0.2-0.1-0.3-0.1s-0.2,0-0.3,0.1l-2.2,1.6l0.8-2.6c0.1-0.2,0-0.4-0.2-0.6l-2.2-1.6H16c0.2,0,0.4-0.1,0.5-0.3l0.8-2.6
	l0.8,2.6c0.1,0.2,0.3,0.3,0.5,0.3h2.7L19.1,18.4z"/>
</svg>
