<?xml version="1.0" encoding="UTF-8"?>
<svg id="_レイヤー_1" data-name="レイヤー 1" xmlns="http://www.w3.org/2000/svg" xmlns:xlink="http://www.w3.org/1999/xlink" viewBox="0 0 1261.54 1513.69">
  <defs>
    <style>
      .cls-1 {
        fill: #231e1f;
      }

      .cls-2 {
        fill: #20100e;
      }

      .cls-3 {
        fill: #472328;
      }

      .cls-4 {
        fill: #7e8792;
      }

      .cls-5 {
        fill: #b9989a;
      }

      .cls-6 {
        fill: #9f1e45;
      }

      .cls-7 {
        fill: #f8e8eb;
      }

      .cls-8 {
        fill: #4c5e78;
      }

      .cls-9 {
        fill: #83504d;
      }

      .cls-10 {
        fill: #a5a7a8;
      }

      .cls-11 {
        fill: #e4e4e4;
      }

      .cls-12 {
        fill: #713149;
      }

      .cls-13 {
        fill: #ebd3da;
      }

      .cls-14 {
        fill: #e779ac;
      }

      .cls-15 {
        fill: #47494a;
      }

      .cls-16 {
        fill: #dbb4b2;
      }

      .cls-17 {
        fill: #bb2d6f;
      }

      .cls-18 {
        fill: #93959f;
      }

      .cls-19 {
        fill: #a92a5a;
      }

      .cls-20 {
        fill: #066a9b;
      }

      .cls-21 {
        fill: url(#_名称未設定グラデーション_4);
      }

      .cls-22 {
        fill: #ec93b7;
      }

      .cls-23 {
        fill: #efb6c7;
      }

      .cls-24 {
        fill: #4f6576;
      }

      .cls-25 {
        fill: #c8c9c9;
      }

      .cls-26 {
        fill: #65707d;
      }

      .cls-27 {
        fill: #b6628e;
      }

      .cls-28 {
        fill: #fff;
      }

      .cls-29 {
        fill: #f5bdc0;
      }

      .cls-30 {
        fill: #e88da0;
      }

      .cls-31 {
        fill: #292824;
      }

      .cls-32 {
        fill: #ac869f;
      }

      .cls-33 {
        fill: #cb3d7e;
      }

      .cls-34 {
        fill: #5a7a86;
      }

      .cls-35 {
        fill: #e7ebd7;
      }

      .cls-36 {
        fill: #b0b9bf;
      }

      .cls-37 {
        fill: #455867;
      }

      .cls-38 {
        fill: #915e62;
      }

      .cls-39 {
        fill: #c05e78;
      }

      .cls-40 {
        fill: #361115;
      }

      .cls-41 {
        fill: #97295d;
      }

      .cls-42 {
        fill: #060404;
      }

      .cls-43 {
        fill: #05466f;
      }

      .cls-44 {
        fill: #5f5575;
      }

      .cls-45 {
        fill: #e35b94;
      }

      .cls-46 {
        fill: #736b80;
      }

      .cls-47 {
        fill: #68697e;
      }

      .cls-48 {
        fill: #868082;
      }
    </style>
    <linearGradient id="_名称未設定グラデーション_4" data-name="名称未設定グラデーション 4" x1="52.08" y1="558.63" x2="495.81" y2="1258.22" gradientUnits="userSpaceOnUse">
      <stop offset=".25" stop-color="#de5591"/>
      <stop offset="1" stop-color="#bf3274"/>
    </linearGradient>
  </defs>
  <g id="_生成オブジェクト" data-name="生成オブジェクト">
    <g>
      <g>
        <path class="cls-21" d="M356.35,444.06c7.65,8.9,16.94,18.36,25.45,26.59C118.03,600.76,25.31,947.94,214.76,1169.46c-3.62,9.68-11.18,38.95-9.55,48.01,2.21,12.27,19.65,18.83,20.68,22.16.97,3.12-3.88,9.36.8,12.56,4.26,2.91,10.85.13,14.32,1.48,1.54.6,14.89,18.3,20.68,22.16,21.3,14.21,73.17,25.31,99.43,26.59l58.86,31.03c-10.59,3.83-26.56,14.83-37.38,16.25-29.87,3.92-59.47-20.16-89.88-22.16-1.56-.1-3.2.02-4.77,0l-70.79-66.48-81.13,29.55-78.75-115.97c1.99-1.26,2.22-4.31,3.18-5.91,7.94-13.22,50.28-34.76,61.25-46.54,2.96-3.18,4.55-2.84,3.98-8.13-.35-3.26-16.41-34.46-19.09-41.37-5.35-13.77-7.95-29.75-13.52-43.58-13.86-.98-78.12,1.38-83.52-8.13L0,889.5l76.36-20.68,15.91-96.03-73.18-42.84,52.5-115.24c3.82-3.97,4.28-4.93,10.34-5.17,11.79-.47,71.17,19.02,74.77,17.73l61.25-76.09-47.73-69.44c14.36-9.5,92.09-80.56,101.02-81.99,14.29-2.29,66.04,50.93,71.59,51.71,3.01.42,10.39-6.13,13.52-7.39Z"/>
        <path class="cls-28" d="M407.26,553.39c-10.73,20.29-20.48,45.03-25.45,67.22-3.03,13.51-4.6,54.47-7.95,62.05-1.07,2.42-33.47,29.04-39.77,36.93-7,8.78-25.39,46.16-27.84,48.01-12.04,9.12-45.09,15.88-56.47,30.29l58.07-28.81c1.72,1.24.57,27.13.8,31.76.12,2.39,4.82,6.96,4.77,7.39-.34,3.07-48.47,30.56-49.32,41.37l78.75-52.45c-6.68,8.65,2.73,41.19,12.73,42.84,4.08.68,7.8-3.99,11.14-2.95,1.76.55,18.74,20.54,25.45,25.12,11.29,7.7,25.59,12.15,37.38,18.47l-3.18.74-42.95,29.55c-51.28,19.14-42.36,35-63.63,74.61-16.89,31.45-35.26,62.53-52.5,93.81-112.84-182.22-46.71-413.03,139.99-525.95Z"/>
        <path class="cls-33" d="M407.26,553.39c-186.7,112.91-252.83,343.73-139.99,525.95-8.84,16.05-17.92,31.44-27.04,47.28-159.02-210.03-58.6-508.62,178.17-624.93,2.92,2.47,16.09,10.15,15.91,12.56-10.22,11.91-19.83,25.51-27.04,39.15Z"/>
        <g>
          <path class="cls-23" d="M381.8,470.66c3.52,3.4,7.5,7,11.14,10.34-7.02,9.29-31.53,9.01-19.89,22.16l29.43-13.3c4.56,3.99,11.01,7.67,15.91,11.82-236.78,116.32-337.19,414.9-178.17,624.93-8.48,14.74-19.28,26.35-25.45,42.84C25.31,947.94,118.03,600.76,381.8,470.66Z"/>
          <g>
            <path class="cls-28" d="M402.48,489.86l-29.43,13.3c-11.64-13.15,12.87-12.87,19.89-22.16,3.12,2.87,6.4,6.11,9.55,8.86Z"/>
            <path class="cls-28" d="M175.79,707.04c14.47-2.38,1.51,34.63-9.55,22.16-1.89-2.13,6.71-21.69,9.55-22.16Z"/>
            <path class="cls-28" d="M299.87,538.62c13.19-1.86,5.03,14.2-1.59,13.3-7.19-.98-4.13-12.49,1.59-13.3Z"/>
            <path class="cls-28" d="M339.64,513.5c9.72-.96,6.16,14-1.59,13.3-7.7-.7-4.76-12.67,1.59-13.3Z"/>
            <path class="cls-11" d="M143.18,841.48h3.18c7.95,19.88-17.81,19.36-3.18,0Z"/>
            <path class="cls-7" d="M188.51,1076.38c5.79.72,8.9,16.35,0,14.77-3.87-.69-8.66-15.86,0-14.77Z"/>
            <path class="cls-7" d="M167.83,1032.06c4.07.55,7.71,12.79,1.59,13.3-6.78.56-10.1-14.45-1.59-13.3Z"/>
            <path class="cls-7" d="M158.29,770.57c7.76.01-2.07,19.22-3.18,19.21-5.44-4.67-.04-14.42,3.18-19.21Z"/>
            <path class="cls-28" d="M279.19,562.26c9.08-2.23,5.15,13.82-1.59,13.3-9.21-.71-.26-12.84,1.59-13.3Z"/>
            <path class="cls-28" d="M206.01,1110.36c6.57.44,6.81,13.86-1.59,11.82-4.84-1.17-5-12.26,1.59-11.82Z"/>
            <polygon class="cls-11" points="163.06 754.31 168.63 756.53 164.65 767.61 159.08 765.4 163.06 754.31"/>
            <path class="cls-13" d="M148.74,986.26c9.78-6.36,9.58,17.01.8,9.6-.38-.32-2.53-8.48-.8-9.6Z"/>
            <path class="cls-28" d="M250.56,590.33c14.62-2.89,4.92,17.62-.8,6.65-.5-.96-1.89-6.12.8-6.65Z"/>
            <path class="cls-7" d="M193.29,671.58c5.62-2.11,7.9,7.27,3.18,8.86-4.09,1.38-8.84-6.74-3.18-8.86Z"/>
            <path class="cls-22" d="M137.61,894.67c.48-.28,7.97-1.01,7.16,2.22-2.8,2.25-11.28.17-7.16-2.22Z"/>
            <path class="cls-22" d="M175.79,1058.66c1.15-.17,3.49-.35,3.98.74l-7.16,3.69c-2.79-1.87,2.67-4.36,3.18-4.43Z"/>
            <path class="cls-22" d="M147.15,803.07c2.73-.62,4.9,1.34,7.16,2.22l-8.75.74c-1.58-.74,1.2-2.87,1.59-2.95Z"/>
            <path class="cls-22" d="M140.79,878.42c2.25-.03,4.36-.69,3.98,2.22l-7.16.74c-1.65-.74,2.96-2.95,3.18-2.95Z"/>
            <path class="cls-22" d="M161.47,1011.38c4.43,1.91-6.68,5.39-7.16,3.69l7.16-3.69Z"/>
            <path class="cls-22" d="M146.36,841.48h-3.18l-2.39-2.95c10.71-.76,5.09,1.75,5.57,2.95Z"/>
            <path class="cls-22" d="M140.79,950.81l7.16.74c.09.44-9.03,3.53-7.16-.74Z"/>
            <polygon class="cls-22" points="215.56 650.9 216.35 653.11 213.97 653.85 213.17 653.11 215.56 650.9"/>
          </g>
        </g>
      </g>
      <g>
        <path class="cls-33" d="M979.96,1317.2c-1.75.11-9.43,1.77-11.14,2.95-4.82.46-20.16,3.52-20.68,7.39-5.59-.19-10.94,2.52-15.91,4.43-46.97,18.11-44.61,19.86-92.27,0l58.86-31.03c40.98-1.19,115.84-14.47,124.09-60.57,9.08-4.39,1.86-6.16,1.59-8.86-.78-7.87,1.62-8.24,1.59-8.86,12.59-6.49,16.96-9.96,9.55-22.16,1.76-4.7-1.23-20.02-3.18-23.64-2.42-9.94,6.76-5.04,11.14-7.39,10.38-5.57,50.69-72.88,57.27-86.43,108.4-223.17,3.42-492.76-221.13-612.38,8.59-8.35,17.73-18.94,25.45-28.07.54,2.3,11.17,8.92,11.93,8.86,5.79-.41,58.91-54.58,73.18-51.71,10.73,2.16,83.54,70.9,99.43,80.52,3.05,11.09-41.8,56.31-47.73,69.44l61.25,76.09,79.54-16.25,7.16,6.65,52.5,113.76-74.77,42.84,15.91,96.03c12.43,4.65,75.63,11.19,77.95,22.16l-9.55,130.01c-4.07,9.16-72.5,7.8-85.11,8.13l-34.2,87.9c10.4,8.27,70.07,48.55,70,57.62l-78.75,115.97-81.13-29.55-62.84,56.14Z"/>
        <path class="cls-28" d="M992.69,1077.86c-17.58-31.22-35.57-62.24-52.5-93.81-25.08-46.79-11.23-42.57-60.45-74.61-10.4-6.77-21.59-12.58-31.82-19.21-2.41-1.56-15.72-8.86-13.52-11.82,11.39-4.44,23.42-9.48,33.41-16.25,6.5-4.41,25.19-24.68,27.04-25.12,3.63-.85,6.81,3.44,11.14,2.95,12.04-1.34,14.35-33.99,12.73-42.84l75.57,49.49c-3-8.41-45.8-35.55-46.13-38.41-.07-.56,4.78-8.46,4.77-10.34-.06-9.69-2.83-19.13-.8-28.81l61.25,30.29c-11.99-15.19-46.95-22-59.66-31.76-2.18-1.67-19.94-38.29-26.25-46.54-11.3-14.77-26.19-27.17-41.36-38.41-1.5-45.76-11.83-88.55-33.41-129.27,186.16,110.79,252.1,344.59,139.99,524.47Z"/>
        <path class="cls-33" d="M1019.73,1126.62c-9.88-16.24-17.82-32.37-27.04-48.75,112.1-179.88,46.17-413.68-139.99-524.47-7.09-13.39-15.05-26.22-25.45-37.67-.64-5.65,11.48-10.3,15.91-14.04,235.75,118.7,329.38,413.31,176.58,624.93Z"/>
        <path class="cls-47" d="M879.74,909.44c-15.2,1.08-31.4-3.59-31.82-19.21,10.23,6.62,21.42,12.44,31.82,19.21Z"/>
        <g>
          <path class="cls-23" d="M1043.59,1169.46c-4.93-15.73-15.35-28.85-23.86-42.84,152.79-211.62,59.16-506.23-176.58-624.93,12.1-10.22,25.3-20.05,36.59-31.03,224.55,119.62,329.53,389.2,221.13,612.38-6.58,13.55-46.89,80.85-57.27,86.43Z"/>
          <g>
            <path class="cls-28" d="M880.53,489.86c11.64-3.6,16.97,12.59,7.95,14.77-5.39,1.31-18.16-11.62-7.95-14.77Z"/>
            <path class="cls-23" d="M1110.41,992.17l-4.77-1.48c.65-2.71,1.75-18.66,3.18-19.94,14.2-5.15,2.15,19.54,1.59,21.42Z"/>
            <path class="cls-28" d="M952.12,537.14c8.37-.97,13.02,13.39,4.77,14.77-4.49.75-15.76-13.5-4.77-14.77Z"/>
            <path class="cls-11" d="M1097.68,1035.02c-1.82,8.45-3.13,8.4-6.36,13.3l-6.36-1.48c1.26-8.86,1.93-7.61,6.36-13.3l6.36,1.48Z"/>
            <path class="cls-28" d="M1010.98,590.33c4.84.02,10.19,16.31,1.59,16.25-6.21-.04-12.04-16.3-1.59-16.25Z"/>
            <path class="cls-23" d="M1121.54,927.17c.04,3.81,1.74-.78,0,6.65-.27,1.15.92,17.62-5.57,12.56-2.09-1.63-1.84-17.46,2.39-19.21.6-.25,2.18.13,3.18,0Z"/>
            <path class="cls-28" d="M1031.66,622.83c5.75-.39,12.12,15.53,1.59,14.77-4.97-.36-9.6-14.23-1.59-14.77Z"/>
            <path class="cls-11" d="M1046.77,655.33l6.36-2.95c16.13,13.03-5.31,19.37-6.36,2.95Z"/>
            <path class="cls-28" d="M923.48,516.46c5.92-.44,12.48,11.74,4.77,13.3-6.17,1.24-14.92-12.55-4.77-13.3Z"/>
            <path class="cls-28" d="M977.57,560.78c7.62-.74,8.7,12.65,1.59,13.3-7.84.71-9.94-12.48-1.59-13.3Z"/>
            <path class="cls-11" d="M1080.18,1074.91c-5.2,19.88-16.09,12.66-6.36-1.48l6.36,1.48Z"/>
            <path class="cls-11" d="M1053.93,1107.41c10.63-2.45,4.86,12.43,1.59,13.3-8.1,2.16-8.03-11.82-1.59-13.3Z"/>
            <path class="cls-7" d="M1110.41,992.17c-1.33,4.43-.21,8.34-3.18,13.3l-6.36-1.48c-.17-5.87,4.24-11.05,4.77-13.3l4.77,1.48Z"/>
            <path class="cls-28" d="M1121.54,927.17c-1,.13-2.58-.25-3.18,0-4.76-2.61-2.19-20.69,3.98-16.25,3.19,2.29-.82,13.99-.8,16.25Z"/>
            <path class="cls-11" d="M1123.14,863.64h-4.77c-1.47-5.45-9.66-14.75,3.98-13.3,1.96,1.37.57,10.88.8,13.3Z"/>
            <path class="cls-11" d="M1124.73,890.23c-4.75,7.82,5.09,16.84-7.16,14.77-1.77-5.11-1.08-9.81.8-14.77h6.36Z"/>
            <path class="cls-11" d="M1115.18,813.41c6.73,1.5.49,6.52,4.77,11.08-9.85,5.37-10.66-2.87-9.55-11.08,1.51.18,3.39-.31,4.77,0Z"/>
            <path class="cls-7" d="M1100.07,760.22c8.87-3.18,8.84,14.5,1.59,13.3-2.86-.47-6.59-11.5-1.59-13.3Z"/>
            <path class="cls-11" d="M1068.25,683.4c6.22-.66,9.23,10.6,3.18,11.82-6.76,1.37-10.38-11.05-3.18-11.82Z"/>
            <path class="cls-11" d="M1086.55,727.72c.84-.19,2.67-1.09,3.18-1.48,14.59,10.98-8,19.05-3.18,1.48Z"/>
            <path class="cls-22" d="M1091.32,1048.31c-.59.89,2.54,2.19,1.59,3.69-12.63,1.43-8.33-2.54-7.95-5.17l6.36,1.48Z"/>
            <path class="cls-14" d="M1123.14,863.64c.2,2.15,5.23,1.1,2.39,4.43h-9.55c-3.09-3.21,2.88-2.61,2.39-4.43h4.77Z"/>
            <path class="cls-22" d="M1097.68,1035.02l-6.36-1.48c.22-.28-3.6-4.24,2.39-4.43,10.92-.35,4.1,5.36,3.98,5.91Z"/>
            <path class="cls-22" d="M1080.18,1074.91l-6.36-1.48c1.82-2.65-2.41-7.24,9.55-.74.79,3.08-3.13,2.04-3.18,2.22Z"/>
            <path class="cls-30" d="M1053.14,652.38l-6.36,2.95-1.59-2.22,9.55-2.95c-.7.62-2.18,1.74-1.59,2.22Z"/>
            <path class="cls-22" d="M1115.18,813.41c-1.38-.31-3.26.18-4.77,0,.2-1.47-2.61-1.92-.8-2.95,5.12-2.34,13.02-2.45,5.57,2.95Z"/>
            <path class="cls-22" d="M1107.23,1005.47c-.23.39,4.02,5.68-5.57,2.95-3.79-1.08-.77-3.47-.8-4.43l6.36,1.48Z"/>
            <path class="cls-22" d="M1036.43,1138.43c.39-.07,7.08,4.31,4.77,5.91-5.17,1.19-9.99-4.97-4.77-5.91Z"/>
            <path class="cls-22" d="M1080.98,707.04c1.37-.08,3.51-.38,3.98.74-.93,1.54-8.11,5.44-9.55,2.95-.82-1.71,5.23-3.67,5.57-3.69Z"/>
            <path class="cls-30" d="M1124.73,890.23h-6.36c.05-.14-3.4-.38-.8-2.95,4.14.37,10.82-1.68,7.16,2.95Z"/>
            <path class="cls-22" d="M1109.61,791.25c1.46-.3,4.39-.33,5.57.74-5.75,6.21-13.82.93-5.57-.74Z"/>
            <path class="cls-22" d="M1089.73,726.24c-.51.39-2.34,1.28-3.18,1.48.46-1.7-3.67-6.62,6.36-3.69-1.99.37-2.57,1.75-3.18,2.22Z"/>
          </g>
        </g>
      </g>
    </g>
    <g>
      <g>
        <path class="cls-45" d="M712.7,343.6c-1.99,12.27-3.43,24.58-4.77,36.93h-154.31c-1.35-13.04-4.17-28.23-6.36-41.37,3.79-9.19-.32-54.31,10.34-57.62h144.77c11.22,3.48,6.72,52.44,10.34,62.05Z"/>
        <path class="cls-45" d="M684.06,414.52c6.5.73,13.33,5.22,20.68,2.95-.26,3.94,1.07,25.34-.8,26.59-47.82-9.24-98.43-10.16-146.36,0-4.04-1.28-2.19-20.73-2.39-25.12,30.32-2.32,61.73-6.24,92.27-5.91,10.94.12,25.97.29,36.59,1.48Z"/>
        <g>
          <path class="cls-23" d="M707.93,380.54c-1.33,12.23-2.37,24.67-3.18,36.93-7.35,2.27-14.18-2.23-20.68-2.95l2.39-8.86c-10.97,2.13-42-9.75-38.98,7.39-30.54-.33-61.95,3.59-92.27,5.91-.57-12.79-.27-25.64-1.59-38.41h154.31Z"/>
          <path class="cls-28" d="M591,386.45c3.3-.14,19.31-.56,20.68,0,3.37,1.39,3.07,10.85,1.59,11.82-1.85,1.22-44.03,3.94-45.34,2.22-8.75-11.45,15.31-13.71,23.07-14.04Z"/>
          <path class="cls-28" d="M649.86,386.45c2.05-1.34,50.75-2.69,38.98,12.56-1.09,1.41-35.68-.03-37.38-.74-3.37-1.39-3.07-10.85-1.59-11.82Z"/>
        </g>
        <path class="cls-7" d="M684.06,414.52c-10.61-1.19-25.65-1.36-36.59-1.48-3.02-17.14,28-5.26,38.98-7.39l-2.39,8.86Z"/>
      </g>
      <g>
        <path class="cls-17" d="M478.84,1382.2c81.69,28.11,163.88,29.78,248.97,14.77,13.79-2.43,43.13-14.18,53.29-14.77,5.84-.34,104.11,27.62,112.15,31.03,12.86,5.45,26.37,31.84,37.38,36.93l-56.47,26.59-65.22-66.48-93.86,23.64-15.91,79.78h-138.4l-13.52-77.56-97.84-24.38c-9.67,7.62-54.64,63.77-62.04,65-5.55.93-39.86-19.19-48.52-20.68,9.09-4.44,20.44-25.06,27.04-31.76,23.48-23.87,79.22-33.33,112.95-42.11Z"/>
        <path class="cls-28" d="M1030.87,1175.37c-2.68-4.1-20.25-16.61-25.45-20.68-8.9-6.97-17-17.94-28.64-20.68-36.33-8.58-87.69,6.92-120.9,20.68-4.44-10.83-6.78-7.82-6.36-22.9.98-35.55,22.15-77.34,23.86-113.76l-18.29,33.24c-.99-6.44-15.98-23.78-16.7-27.33-1.66-8.12,9.28-49.92,11.14-62.05,1.1-7.22,1.57-37.84,3.18-41.37,1.81-3.96,30.01,4.54,34.2,6.65,23.34,11.75,71.86,123.7,88.29,152.91,18.05,32.08,40.64,62.02,55.68,95.29Z"/>
        <path class="cls-23" d="M898.83,1300.95l-58.86,31.03c-3.96-1.65-15.24-1.87-15.91-7.39,8.69-1.41,22.06-6.02,29.43-10.34,4.74-2.78,13.16-14.29,14.32-14.77,1.42-.59,25.78,1.63,31.02,1.48Z"/>
        <path class="cls-23" d="M437.48,1326.06c-1.51,6.86-13.42,5.91-17.5,7.39l-58.86-31.03c7.89.39,23.33-5.01,31.02-1.48,1.21.56,10.87,13.54,19.09,17.73,8.3,4.23,17.4,5.13,26.25,7.39Z"/>
        <path class="cls-47" d="M1030.87,1175.37c1.12,1.71,1.54,1.38,1.59,1.48,1.95,3.62,4.94,18.94,3.18,23.64-2.06-3.38-10.35-10.96-14.32-13.3-3.22-11.4-13.69-21-15.91-32.5,5.21,4.08,22.77,16.58,25.45,20.68Z"/>
        <g>
          <path class="cls-11" d="M975.19,1145.82c23.33,4.26,31.87,37.67,33.41,56.14-10.55,14.93-19.96,32.42-38.98,39.89-16.38,6.43-64.88,16.73-84.31,20.68-11.04,2.24-23.02,2.83-34.2,4.43-4.76-14.9-21.69-32.9-37.38-38.41,50.03-18.83,93.87-62.34,151.93-51.71-21.12-33.1-68.53-13.59-96.25,1.48-4.97-2.85-4.64-8.15-7.16-11.82,30.33-15.71,78.62-26.95,112.95-20.68Z"/>
          <path class="cls-28" d="M965.64,1176.85c-58.05-10.63-101.89,32.88-151.93,51.71,15.7,5.51,32.63,23.51,37.38,38.41.31.98,1.35,9.59,1.59,11.82-18.79,13.31-85.9,14.77-93.86,39.15-3.62,11.07,2.05,34.35-22.27,9.6-1.95-10.4-2.42-17.25,1.59-27.33-1.23-.93-3.41,1.37-4.77,2.22-10.39,6.47-14.43,28.56-30.23,4.43.99-8.49,8.7-19.6,12.73-27.33-6.51,1.56-10.6,9.6-14.32,14.04-12.07,3.81-16.19-5.53-19.09-14.77,3.86-7.4,11.79-11.37,15.91-18.47-1.43-2.63-19.3,8.51-22.27,9.6-14.31-14.16,17.03-36.79,29.43-39.89,21.39-5.34,58.72-.57,83.52-2.95,44.05-4.23,59.65-25.99,96.25-42.84,25.29-11.65,53.84-23.7,80.34-7.39Z"/>
          <path class="cls-10" d="M854.28,1284.7c0-.3-1.27-2.98-1.59-5.91-.24-2.23-1.28-10.84-1.59-11.82,11.19-1.6,23.17-2.19,34.2-4.43,19.43-3.95,67.93-14.25,84.31-20.68,19.02-7.46,28.43-24.96,38.98-39.89,4.08,48.93-10.61,65.3-59.66,78.3-33.26,8.82-60.31,8.04-94.66,4.43Z"/>
          <path class="cls-11" d="M854.28,1284.7c-.52,35.03-59.58,20.7-73.97,38.41-4.13,5.08.69,9-.8,14.04-3.51,11.88-35.93,9.65-41.36,1.48-2.5-3.76-.92-7.5-1.59-11.08,24.33,24.75,18.66,1.47,22.27-9.6,7.96-24.38,75.07-25.84,93.86-39.15.32,2.93,1.6,5.6,1.59,5.91Z"/>
          <path class="cls-26" d="M976.78,1134l-1.59,11.82c-34.33-6.27-82.62,4.98-112.95,20.68-3.5-5.11-4.05-6.19-6.36-11.82,33.22-13.76,84.57-29.26,120.9-20.68Z"/>
          <path class="cls-28" d="M789.06,1225.6v1.48c-24.8,2.38-62.13-2.39-83.52,2.95-12.4,3.1-43.74,25.73-29.43,39.89-14.69,5.41-14.79-1.54-11.14-14.04,2.78-9.52,21.16-22.04,30.23-27.33,7.19,2.71,15.23-3.72,23.07-4.43,22.31-2.04,50.15,3,70.79,1.48Z"/>
          <path class="cls-28" d="M789.06,1225.6c-20.64,1.52-48.48-3.52-70.79-1.48-7.84.72-15.87,7.15-23.07,4.43,6.09-3.56,10.05-8.4,18.29-10.34,9.62-2.27,85.13-2.57,85.11,3.69-1.38,1.71-7.83,3.57-9.55,3.69Z"/>
          <path class="cls-11" d="M703.15,1306.86c15.79,24.13,19.83,2.04,30.23-4.43,1.47,30.28-34.59,42-30.23,4.43Z"/>
        </g>
        <path class="cls-28" d="M1035.64,1200.48c7.42,12.2,3.04,15.67-9.55,22.16-.47-10.91-1.78-24.86-4.77-35.46,3.97,2.34,12.26,9.92,14.32,13.3Z"/>
        <path class="cls-17" d="M698.38,1343.79c2.68,6.35,14.01,12.19,20.68,16.25-39.73,5.06-79.96,5.14-120.11,4.43-12.47-.22-34.11-5.55-45.34-4.43,1.4-14.19,22.09-13.59,32.61-17.73,11.04-4.35,21.77-10.02,32.61-14.77,23.65,3.01,56.39,10.13,79.54,16.25Z"/>
        <g>
          <path class="cls-11" d="M472.48,1334.93c-9.82-1.76-97.05,28.01-93.86,34.72l93.86-30.29c.55,1.46-.58,4.64,0,5.91l-92.27,31.76,95.45-27.33c.68.96,6.36,4.73,7.95,5.91-4.88.28-86.05,24.98-93.06,28.07-.47.21-10.87,4.72-3.98,4.43l11.14,6.65-9.55,8.13c-41.35,23.43-34.06,60.25-97.84,50.23-8.32-1.31-16.72-6.36-24.66-8.86-.08-1.1,1.12-1.46,1.59-2.95,2.09,1.77,6.23,2.08,7.95,2.95,26.57,13.41,60.66,10.19,77.95-14.77,46.11-66.58-60.06-120.94-95.45-82.73-2.42,2.62-10.91,11.64-4.77,10.34-8.25,3.29-11.42,8.97-19.09,11.08,15.23-25.56,24.93-39.09,58.86-37.67,37.03,1.55,37.86,16.64,61.25,25.12,25.37,9.19,73.15-20.09,99.43-26.59,6.24,1.26,16.62.17,19.09,5.91Z"/>
          <path class="cls-8" d="M959.28,1411.75c.89,6.56,39.03,10.76,46.13,13.3,2.72,6.18-1.17,8.25-6.36,11.82-3.02.32-6.67-.46-9.55,0l-58.86-11.08c9.55-28.49,33.85-59.57,23.86-90.12,19.02-.34,36.78,6.21,54.88,9.6,4.18.78,6.39,2.72,5.57-2.95,5.47,4.06,10.2,8.69,15.11,13.3,7.97-3.46-24.64-30.31-31.02-32.5-9.59-3.3-19.75-3.96-30.23-2.95,1.71-1.19,9.39-2.84,11.14-2.95,28.5-1.87,59.71,26.94,66.82,50.97l-78.75-14.04c10.43,18.78-1.25,39.55-8.75,57.62Z"/>
          <path class="cls-8" d="M287.94,1327.54c1.57.02,3.21-.1,4.77,0v2.95c-33.93-1.42-43.64,12.12-58.86,37.67,7.67-2.11,10.84-7.8,19.09-11.08,6.67-2.65,55.13-16.35,57.27-11.08-7.43,28.51,11.91,62.14,23.86,88.64l-41.36,9.6c-1.57-.08-3.21.11-4.77,0-4.18-.3-8.53.21-12.73,0-1.73-.87-5.86-1.18-7.95-2.95.06-.18-3.41-1.32-3.18-2.22,1.86-7.22,39.17-16.62,47.73-19.21-8.89-16.14-11.46-34.44-19.09-50.97-.66-1.42.29-2.87,1.59-3.69l-30.23,8.13c-13.99,2.53-27.43,6.75-40.57,11.82-11.18-7.5,25.3-47.15,33.41-51.71,10.05-5.65,19.69-6.03,31.02-5.91Z"/>
          <path class="cls-8" d="M618.84,1327.54c-10.84,4.75-21.57,10.43-32.61,14.77-10.53,4.14-31.22,3.53-32.61,17.73-6.83.68-24.3,11.9-34.2,14.77-11.86,3.44-28.1,4.14-40.57,7.39-33.73,8.77-89.47,18.24-112.95,42.11-6.6,6.71-17.96,27.33-27.04,31.76-11.4,5.57-68.01,1.66-75.57-7.39-2.59-3.11,2.41-4.19,2.39-4.43,7.93,2.51,16.34,7.56,24.66,8.86,63.78,10.01,56.49-26.8,97.84-50.23,43.1-24.43,82.32-26.01,126.47-39.89,42.18-13.26,54.76-41.74,104.2-35.46Z"/>
          <path class="cls-8" d="M871.78,1396.98c9.33,4.04,18.95,7.05,27.04,13.3,14.72,11.37,22.45,31.39,45.34,36.93,25.11,6.08,45.05-6.17,67.61-9.6-15.05,15.6-63.21,20.85-81.13,12.56-11.02-5.1-24.52-31.49-37.38-36.93-8.05-3.41-106.31-31.36-112.15-31.03-25.35-6.31-39.94-8.7-62.04-22.16-6.67-4.06-18-9.9-20.68-16.25,21.18,5.6,32.86,14,50.11,19.21,41.88,12.63,79.89,15.19,123.29,33.98Z"/>
          <path class="cls-41" d="M1005.41,1425.05c-7.1-2.54-45.24-6.74-46.13-13.3,8.54-11.02,43.07,6.33,46.13,13.3Z"/>
          <path class="cls-27" d="M292.72,1368.91c-9.06,3.43-19.6,2.8-28.64,4.43l30.23-8.13c-1.3.82-2.25,2.27-1.59,3.69Z"/>
          <path class="cls-28" d="M699.97,1334.93c12.46,13.64,26.13,3.45,27.84,4.43.55.31.93,6.48,6.36,10.34,10.95,7.79,18.9,10.28,32.61,7.39l109.77,26.59c.99.45,3.74-.98,3.18,2.22-5.37,2.97-9.03,5.66-7.95,11.08-43.41-18.79-81.41-21.35-123.29-33.98-17.26-5.2-28.93-13.61-50.11-19.21-23.15-6.12-55.9-13.25-79.54-16.25-49.44-6.28-62.02,22.19-104.2,35.46-44.15,13.88-83.37,15.46-126.47,39.89l9.55-8.13-11.14-6.65,106.59-29.55c7.8-.3,10.91,2.39,19.89,0,7.14-1.9,11.03-9.83,15.91-11.82.88-.36,12.72,1.52,19.09-1.48,4.14-1.95,6.2-7.28,8.75-10.34,3.25-5.4,34.46-11.13,20.68-16.25.41-.31,4.6-4.16,4.77-4.43l117.72,20.68Z"/>
          <path class="cls-25" d="M687.24,1318.68c10.77,6.17,4.95,5.62,9.55,10.34l-111.36-22.16c.31-1.37-.25-3.03,0-4.43l101.81,16.25Z"/>
          <path class="cls-44" d="M453.39,1329.02c-26.27,6.5-74.05,35.78-99.43,26.59-23.39-8.47-24.22-23.57-61.25-25.12v-2.95c30.41,2,60.01,26.08,89.88,22.16,10.82-1.42,26.79-12.42,37.38-16.25,4.08-1.47,15.99-.53,17.5-7.39,5.31,1.36,10.55,1.87,15.91,2.95Z"/>
          <path class="cls-28" d="M593.38,1289.13c24.46,1.73,50.54,9.26,74.77,13.3.87,5.03,4.85,6.46,4.77,10.34-26.68-7.97-60.79-7.37-87.5-17.73.19-2.5-2.33-6.61-.8-7.39,3.33-1.27,7.01,1.35,8.75,1.48Z"/>
          <path class="cls-44" d="M824.06,1324.58c.67,5.52,11.95,5.74,15.91,7.39,47.66,19.86,45.3,18.11,92.27,0-39.97,42.54-86.32,4.44-132.04-5.91,8.59-1.46,14.92-.02,23.86-1.48Z"/>
          <path class="cls-37" d="M696.79,1329.02c2.18,2.24,1.49,4.05,3.18,5.91l-117.72-20.68c.22-.34,3.09-7,3.18-7.39l111.36,22.16Z"/>
          <path class="cls-11" d="M657.02,1280.26l-5.57,5.91,16.7,4.43c.33,1.33-.32,3.09,0,4.43l-60.45-10.34c.29-.11,2.55-4.15,3.98-4.43,6.64-1.3,19.05,3.71,25.45,2.95,8.98-1.06,5.37-8.87,19.89-2.95Z"/>
          <path class="cls-8" d="M472.48,1334.93c.44,1.01-.42,3.32,0,4.43l-93.86,30.29c-3.19-6.71,84.04-36.48,93.86-34.72Z"/>
          <path class="cls-8" d="M493.16,1358.56l-106.59,29.55c-6.89.29,3.51-4.23,3.98-4.43,7.02-3.09,88.18-27.79,93.06-28.07.97-.06,9.04,2.97,9.55,2.95Z"/>
          <path class="cls-24" d="M475.66,1349.7l-95.45,27.33,92.27-31.76c.11.25,2.5,3.47,3.18,4.43Z"/>
          <path class="cls-37" d="M672.93,1312.77c4.28,1.28,10.45,3.69,14.32,5.91l-101.81-16.25c.39-2.21-.18-5,0-7.39,26.71,10.36,60.82,9.76,87.5,17.73Z"/>
          <path class="cls-8" d="M876.55,1383.68l-109.77-26.59c2.01-.42,5.96-2,7.95-2.95,29.54,13.35,73.42,16.6,101.81,29.55Z"/>
          <path class="cls-8" d="M668.15,1295.04c.5,2.11-.39,5.11,0,7.39-24.22-4.03-50.31-11.57-74.77-13.3,5-1.32,9.46-2.66,14.32-4.43l60.45,10.34Z"/>
          <path class="cls-10" d="M1014.96,1342.31c.82,5.67-1.38,3.74-5.57,2.95-18.1-3.4-35.86-9.95-54.88-9.6,9.98,30.55-14.32,61.63-23.86,90.12l58.86,11.08c-1.51.24-6.51,2.88-7.16,2.95-.35.04-.18-.19-3.18,0-6.98.44-24.07,1.04-30.23,0-1.65-.28-22.9-12.23-26.25-15.51-47.37-46.33,27.78-129.89,92.27-81.99Z"/>
          <g>
            <path class="cls-11" d="M1014.96,1342.31c-64.49-47.89-139.64,35.66-92.27,81.99,3.35,3.28,24.6,15.23,26.25,15.51,6.16,1.04,23.25.44,30.23,0,3-.19,2.83.04,3.18,0,.65-.08,5.65-2.71,7.16-2.95,2.87-.46,6.52.32,9.55,0-31.89,21.95-83.65,3.36-95.45-30.29l-4.77,3.69c-8.1-6.25-17.72-9.26-27.04-13.3-1.07-5.42,2.59-8.11,7.95-11.08.56-3.2-2.19-1.76-3.18-2.22-28.4-12.95-72.27-16.2-101.81-29.55,1.32-.63,7.34-5.14,7.95-5.91l93.06,29.55c.71-1.01,3.96-3.18,3.98-3.69.27-7-85.47-23.99-93.86-33.24.55-.94,1.08-1.99,1.59-2.95l93.86,27.33-93.86-33.24c1.93-3.47,7.51-5.02,12.73-5.91,45.72,10.35,92.07,48.45,132.04,5.91,4.96-1.91,10.32-4.62,15.91-4.43l-5.57,5.91c15.78-10.79,34.34-9.08,52.5-7.39,3.8.35,4.16,3.64,3.98-2.95,6.38,2.2,38.99,29.04,31.02,32.5-4.92-4.61-9.64-9.23-15.11-13.3Z"/>
            <g>
              <path class="cls-8" d="M787.47,1337.88c.6-1.13-.6-4.83,0-5.91l93.86,33.24-93.86-27.33Z"/>
              <path class="cls-37" d="M782.69,1348.22c.33-.41,1.89-5.21,3.18-7.39,8.39,9.25,94.13,26.24,93.86,33.24-.02.52-3.26,2.69-3.98,3.69l-93.06-29.55Z"/>
              <path class="cls-36" d="M999.05,1323.11c.18,6.6-.18,3.31-3.98,2.95-18.16-1.7-36.71-3.4-52.5,7.39l5.57-5.91c.52-3.87,15.86-6.93,20.68-7.39,10.47-1,20.63-.35,30.23,2.95Z"/>
              <path class="cls-4" d="M915.53,1348.22c1.43-.08,3.28-.41,3.98.74l-15.11,22.9c-.38-10.52-4.61-11.41-13.52-15.51,6.43,1.57,21.58-7.96,24.66-8.13Z"/>
              <path class="cls-25" d="M901.21,1377.77c.62-.28,4,3.99,1.59,4.43-3.22.6-3.13-3.74-1.59-4.43Z"/>
            </g>
          </g>
          <path class="cls-10" d="M292.72,1444.25l41.36-9.6c-11.95-26.51-31.29-60.14-23.86-88.64-2.14-5.27-50.6,8.43-57.27,11.08-6.14,1.3,2.35-7.73,4.77-10.34,56.95-33.3,132.32,32.7,89.09,83.47-16.2,19.02-31.17,15.24-54.09,14.04Z"/>
          <path class="cls-28" d="M353.17,1429.48c-17.29,17.13-29.76,20.93-54.88,19.21-.57-.04-14.32-1.21-10.34-4.43,1.57.11,3.2-.08,4.77,0,22.92,1.21,37.89,4.99,54.09-14.04,43.24-50.77-32.14-116.78-89.09-83.47,35.39-38.21,141.56,16.15,95.45,82.73Z"/>
          <path class="cls-18" d="M275.22,1444.25c4.2.21,8.55-.3,12.73,0-3.98,3.22,9.77,4.39,10.34,4.43,25.12,1.72,37.6-2.08,54.88-19.21-17.29,24.97-51.38,28.18-77.95,14.77Z"/>
          <g>
            <path class="cls-23" d="M553.61,1360.04c11.23-1.12,32.87,4.21,45.34,4.43,40.15.71,80.38.63,120.11-4.43,22.11,13.46,36.7,15.85,62.04,22.16-10.17.59-39.5,12.34-53.29,14.77-85.09,15.01-167.27,13.33-248.97-14.77,12.47-3.24,28.7-3.94,40.57-7.39,9.91-2.88,27.37-14.09,34.2-14.77Z"/>
            <g>
              <path class="cls-28" d="M650.65,1391.07c-1.51.24-3.23-.14-4.77,0-.99-2.54-3.36-10.13-.8-11.82,2.6-1.71,35.52-2.06,41.36-4.43,12.39,19.8-22.76,14.21-35.79,16.25Z"/>
              <path class="cls-11" d="M610.88,1389.59h-6.36v-9.6l7.16-.74c3.58,1.04.16,8.67-.8,10.34Z"/>
              <path class="cls-7" d="M565.54,1382.2c1.83-.58,11.93-.31,11.93,2.22-3.33,5.81-19.81.26-11.93-2.22Z"/>
              <path class="cls-7" d="M708.72,1383.68c2.25-.67,9.25-.09,11.93.74l-13.52,2.22c-1.56-.74,1.11-2.81,1.59-2.95Z"/>
              <path class="cls-30" d="M610.88,1389.59c-.6,1.05,2.66,1.96.8,2.95-3.69-.18-7.95,1.39-7.16-2.95h6.36Z"/>
              <path class="cls-22" d="M650.65,1391.07c3.69,3.54-2.65,3.82-5.57,2.95-2.02-.6,1.23-1.83.8-2.95,1.54-.14,3.26.24,4.77,0Z"/>
            </g>
          </g>
        </g>
        <g>
          <path class="cls-19" d="M547.25,339.17c2.2,13.14,5.01,28.33,6.36,41.37,1.32,12.77,1.02,25.62,1.59,38.41.2,4.39-1.65,23.84,2.39,25.12,47.93-10.16,98.53-9.24,146.36,0,1.87-1.25.53-22.65.8-26.59.82-12.27,1.85-24.7,3.18-36.93,1.35-12.35,2.79-24.66,4.77-36.93,18.76-115.88,111.28-298.09,241.01-336.84,30.62-9.14,43.48-13.83,51.7,18.47,32.19,126.43-13.89,315.32-100.22,417.36-7.73,9.13-16.87,19.73-25.45,28.07-11.29,10.98-24.48,20.81-36.59,31.03-4.43,3.74-16.55,8.38-15.91,14.04,10.4,11.46,18.36,24.28,25.45,37.67,21.58,40.72,31.91,83.51,33.41,129.27,15.17,11.24,30.07,23.64,41.36,38.41,6.31,8.25,24.07,44.86,26.25,46.54,12.7,9.76,47.67,16.58,59.66,31.76l-61.25-30.29c-2.04,9.68.73,19.12.8,28.81.01,1.88-4.84,9.78-4.77,10.34.34,2.86,43.13,30,46.13,38.41l-75.57-49.49c1.63,8.85-.69,41.5-12.73,42.84-4.32.48-7.51-3.8-11.14-2.95-1.85.43-20.54,20.71-27.04,25.12-9.99,6.77-22.02,11.81-33.41,16.25-2.2,2.96,11.11,10.26,13.52,11.82.42,15.62,16.61,20.28,31.82,19.21,49.22,32.04,35.37,27.81,60.45,74.61,16.93,31.57,34.92,62.59,52.5,93.81,9.23,16.39,17.16,32.51,27.04,48.75,8.51,13.99,18.94,27.11,23.86,42.84-4.37,2.35-13.56-2.55-11.14,7.39-.05-.09-.47.23-1.59-1.48-15.04-33.28-37.63-63.21-55.68-95.29-16.43-29.21-64.96-141.16-88.29-152.91-4.19-2.11-32.39-10.61-34.2-6.65-1.61,3.52-2.08,34.15-3.18,41.37-1.85,12.13-12.8,53.93-11.14,62.05.73,3.55,15.71,20.9,16.7,27.33l18.29-33.24c-1.71,36.42-22.88,78.21-23.86,113.76-.42,15.08,1.92,12.07,6.36,22.9,2.31,5.63,2.87,6.71,6.36,11.82,2.51,3.67,2.19,8.97,7.16,11.82,27.72-15.07,75.13-34.58,96.25-1.48-26.49-16.31-55.04-4.26-80.34,7.39-36.6,16.85-52.19,38.61-96.25,42.84v-1.48c1.72-.13,8.17-1.99,9.55-3.69.02-6.27-75.49-5.96-85.11-3.69-8.24,1.94-12.2,6.78-18.29,10.34-9.06,5.29-27.44,17.82-30.23,27.33-3.65,12.49-3.55,19.45,11.14,14.04,2.97-1.09,20.84-12.24,22.27-9.6-4.11,7.09-12.05,11.07-15.91,18.47-3.61,6.94-8.41,20.27.8,25.12,13.66,7.19,13.35-4.43,18.29-10.34,3.71-4.44,7.81-12.47,14.32-14.04-4.03,7.73-11.74,18.84-12.73,27.33-4.36,37.57,31.7,25.85,30.23-4.43,1.36-.85,3.54-3.14,4.77-2.22-4.01,10.08-3.54,16.93-1.59,27.33.67,3.58-.91,7.32,1.59,11.08,5.43,8.17,37.85,10.41,41.36-1.48,1.49-5.03-3.33-8.96.8-14.04,14.39-17.71,73.45-3.39,73.97-38.41,34.35,3.61,61.4,4.38,94.66-4.43,49.05-13,63.73-29.37,59.66-78.3-1.54-18.47-10.07-51.88-33.41-56.14l1.59-11.82c11.63,2.75,19.73,13.71,28.64,20.68,2.22,11.5,12.69,21.1,15.91,32.5,2.99,10.6,4.3,24.55,4.77,35.46.03.62-2.37,1-1.59,8.86-5.5,2.35-1.5,8.37-1.59,8.86-8.25,46.1-83.11,59.39-124.09,60.57-5.25.15-29.61-2.07-31.02-1.48-1.15.48-9.58,11.99-14.32,14.77-7.37,4.32-20.74,8.93-29.43,10.34-8.95,1.45-15.27.01-23.86,1.48-5.21.89-10.8,2.44-12.73,5.91-.6,1.08.6,4.78,0,5.91-.51.97-1.04,2.02-1.59,2.95-1.29,2.18-2.85,6.97-3.18,7.39-.62.77-6.64,5.28-7.95,5.91-1.99.96-5.94,2.53-7.95,2.95-13.72,2.89-21.66.4-32.61-7.39-5.43-3.86-5.82-10.03-6.36-10.34-1.71-.98-15.38,9.21-27.84-4.43-1.69-1.85-1-3.67-3.18-5.91-4.59-4.72,1.22-4.17-9.55-10.34-3.87-2.22-10.04-4.63-14.32-5.91.08-3.88-3.9-5.31-4.77-10.34-.39-2.27.5-5.28,0-7.39-.32-1.34.33-3.1,0-4.43-1.22-4.85-5.52-8.05-11.14-10.34-14.52-5.92-10.9,1.9-19.89,2.95-6.41.76-18.81-4.26-25.45-2.95-1.43.28-3.69,4.33-3.98,4.43-4.85,1.78-9.32,3.11-14.32,4.43-1.74-.12-5.42-2.75-8.75-1.48-1.53.78.99,4.88.8,7.39s.39,5.18,0,7.39c-.25,1.4.31,3.06,0,4.43-.09.39-2.96,7.05-3.18,7.39-.18.27-4.36,4.13-4.77,4.43-4.9,3.67-16,5.4-16.7,5.91-2.21,1.62-2.85,8.99-3.98,10.34-2.55,3.06-4.61,8.39-8.75,10.34-6.37,3-18.21,1.12-19.09,1.48-4.87,1.99-8.77,9.92-15.91,11.82-8.98,2.39-12.08-.3-19.89,0-.5.02-8.57-3.01-9.55-2.95-1.6-1.18-7.27-4.95-7.95-5.91s-3.07-4.19-3.18-4.43c-.58-1.27.55-4.45,0-5.91-.42-1.12.44-3.42,0-4.43-2.47-5.74-12.85-4.65-19.09-5.91-5.36-1.08-10.59-1.6-15.91-2.95-8.84-2.26-17.95-3.16-26.25-7.39-8.22-4.19-17.88-17.17-19.09-17.73-7.69-3.54-23.13,1.86-31.02,1.48-26.25-1.28-78.12-12.38-99.43-26.59-5.79-3.86-19.14-21.56-20.68-22.16-3.47-1.35-10.06,1.44-14.32-1.48-4.67-3.2.17-9.43-.8-12.56-1.03-3.33-18.47-9.89-20.68-22.16-1.64-9.06,5.93-38.34,9.55-48.01,6.17-16.5,16.97-28.11,25.45-42.84,9.12-15.84,18.2-31.23,27.04-47.28,17.24-31.28,35.61-62.36,52.5-93.81,21.27-39.61,12.35-55.47,63.63-74.61,22.79-8.51,26.87-10.83,42.95-29.55l3.18-.74c-11.79-6.31-26.1-10.77-37.38-18.47-6.71-4.58-23.69-24.57-25.45-25.12-3.34-1.04-7.06,3.63-11.14,2.95-10-1.66-19.4-34.2-12.73-42.84l-78.75,52.45c.84-10.8,48.98-38.3,49.32-41.37.05-.43-4.66-4.99-4.77-7.39-.23-4.63.92-30.52-.8-31.76l-58.07,28.81c11.38-14.41,44.43-21.17,56.47-30.29,2.45-1.85,20.84-39.24,27.84-48.01,6.3-7.89,38.7-34.52,39.77-36.93,3.36-7.58,4.92-48.54,7.95-62.05,4.98-22.19,14.73-46.93,25.45-67.22,7.21-13.64,16.82-27.24,27.04-39.15.18-2.4-12.99-10.08-15.91-12.56-4.9-4.15-11.35-7.83-15.91-11.82-3.14-2.75-6.42-5.99-9.55-8.86-3.64-3.34-7.61-6.94-11.14-10.34-8.52-8.23-17.8-17.69-25.45-26.59-83.99-97.68-137.47-303.14-100.22-423.27,6.65-21.46,12.21-22.58,35.79-18.47,134.55,23.47,236.52,224.38,255.33,336.84Z"/>
          <g>
            <path class="cls-46" d="M383.39,910.92l42.95-29.55c-16.08,18.72-20.16,21.04-42.95,29.55Z"/>
            <g>
              <g>
                <g>
                  <path class="cls-11" d="M962.46,20.06c2.92,8.94-14.01,10.04-17.5,16.99.43,7.36,34.46-14.92,38.18-8.86,8.87,41.58,12.1,85.24,11.14,127.79-3.03,134.17-61.45,264.75-177.38,347.19-25.69-26.2-58.42-44.56-94.66-55.4-5.11-108.21,25.02-217.83,90.68-307.3,32.43-44.19,93.7-104.02,149.54-120.41Z"/>
                  <g>
                    <path class="cls-28" d="M994.28,155.97c.96-42.55-2.27-86.21-11.14-127.79-3.72-6.06-37.75,16.23-38.18,8.86,3.49-6.95,20.42-8.05,17.5-16.99,7.14-2.09,14.23-4.11,21.48-5.91,11.67,3.59,14.29,124.92,10.34,141.83Z"/>
                    <path class="cls-29" d="M970.41,189.95c-2.76,40.78-19.82,93.69-36.59,131.49-24.13,35.55-48.74,69.38-81.13,98.98-10.01-57.02-2.01-126.04,12.73-182.46,13.01-49.79,42.1-122.76,94.66-145.52,9.37,2.53,11.19,84.88,10.34,97.51Z"/>
                    <path class="cls-30" d="M970.41,189.95c.85-12.63-.97-94.97-10.34-97.51-52.55,22.76-81.65,95.73-94.66,145.52-14.74,56.42-22.74,125.44-12.73,182.46-11.04,10.1-23.92,21.32-36.59,29.55-17.82-131.73,28.65-263.02,109.77-369.35,12.63-11.63,23.67-25.17,38.98-33.98,12.02,1,11.01,97.37,10.34,110.07-.57,10.69-3.04,22.6-4.77,33.24Z"/>
                    <path class="cls-33" d="M816.1,449.97c-7.11,4.62-12.52,11.68-22.27,8.86-17.93-144.53,20.75-275.69,132.04-378.21-81.11,106.33-127.59,237.62-109.77,369.35Z"/>
                    <path class="cls-17" d="M933.82,321.44c-28.3,63.78-71.62,122.63-132.84,162.51-6.54.55-6.56-20.3-7.16-25.12,9.76,2.82,15.16-4.24,22.27-8.86,12.67-8.23,25.54-19.45,36.59-29.55,32.39-29.61,57-63.43,81.13-98.98Z"/>
                    <path class="cls-28" d="M893.26,85.06c4.74.56,1.81,1.98.8,3.69-9.32,15.82-47.36,49.63-62.04,69.44-16.81,22.68-31.32,46.66-43.75,71.65-1.52-2.32,1.65-12.1,2.39-14.04,2.7-7.07,19.38-36.49,23.86-42.84,22.47-31.85,51.67-59.44,78.75-87.9Z"/>
                  </g>
                </g>
                <g>
                  <path class="cls-28" d="M475.66,184.04c46.82,80.8,67.35,172.63,62.84,264.45-27.34,6.58-50.27,20.02-72.38,35.46-1.35.15-1.5-.35-1.59-1.48-.67-7.97,2.46-19.62,3.18-28.07,9.98-116.65-8.61-227.8-84.31-323.55,1.32-8.61,12.89,6.42,14.32,8.13,76.55,91.52,86.71,226.53,73.97,337.58,8.43-5.15,15.19-12.9,23.86-17.73,14.69-8.18,37.92-9.99,40.57-25.85,9.91-59.44-32.03-191.28-62.04-245.25-.1-.18-1.44-5.12,1.59-3.69Z"/>
                  <path class="cls-28" d="M412.03,99.83c-3.04-2.79-21.46-20.68-23.07-20.68s-10.36,10.24-11.14,10.34c-3.01.41-35.97-32.9-44.54-38.41-15.8-10.17-36.64-17.54-54.09-25.12-6.17,2.1-13.21,85.02-13.52,96.03.15-35.6-2.13-71.79,8.75-106.37,55.84,6.45,102.16,46.16,137.61,84.21Z"/>
                  <path class="cls-29" d="M408.85,420.43c-33.1-30.04-59.03-60.99-81.13-98.98-19.46-43.74-31.91-82.72-38.18-130.01,3.93-32.22-3.92-66.79,10.34-97.51,20.77-7.02,63.76,62.97,70.79,77.56,35.2,73.06,46.26,170,38.18,248.94Z"/>
                  <path class="cls-30" d="M334.08,80.63c11.81,14.04,28.59,39.55,38.18,55.4,58.13,96.11,84.54,203.27,73.18,313.94-14.26-9.1-24.37-18.45-36.59-29.55,8.08-78.93-2.98-175.88-38.18-248.94-7.03-14.6-50.02-84.59-70.79-77.56-14.26,30.72-6.41,65.29-10.34,97.51-6.25-47.17-8.75-96.01,3.18-142.57,2.45-3.59,7.94.78,10.34,2.22,9.55,5.71,23.79,20.96,31.02,29.55Z"/>
                  <path class="cls-33" d="M383.39,130.86c75.71,95.75,94.29,206.9,84.31,323.55-10.33,10.91-15.63-.2-22.27-4.43,11.36-110.67-15.05-217.84-73.18-313.94-9.59-15.85-26.37-41.36-38.18-55.4,17.46,15.37,35.07,32.21,49.32,50.23Z"/>
                  <path class="cls-17" d="M408.85,420.43c12.22,11.09,22.32,20.45,36.59,29.55,6.64,4.24,11.94,15.34,22.27,4.43-.72,8.45-3.85,20.1-3.18,28.07-3.29,2.58-6.15.03-8.75-1.48-59.06-34.22-102.13-101.27-128.06-159.56,22.1,37.99,48.03,68.94,81.13,98.98Z"/>
                  <g>
                    <path class="cls-11" d="M412.03,99.83c26.59,24.37,46.04,53.85,63.63,84.21-3.03-1.42-1.69,3.52-1.59,3.69,30.01,53.97,71.95,185.81,62.04,245.25-2.64,15.86-25.88,17.67-40.57,25.85-8.67,4.83-15.43,12.58-23.86,17.73,12.73-111.05,2.58-246.06-73.97-337.58-1.43-1.71-13-16.74-14.32-8.13-14.25-18.02-31.85-34.86-49.32-50.23-7.23-8.59-21.47-23.83-31.02-29.55-2.4-1.44-7.89-5.81-10.34-2.22-11.94,46.55-9.44,95.4-3.18,142.57,6.27,47.29,18.72,86.27,38.18,130.01,25.94,58.29,69,125.33,128.06,159.56,2.6,1.51,5.46,4.05,8.75,1.48.09,1.13.24,1.63,1.59,1.48-8.29,5.79-15.99,12.14-23.07,19.21-15.69-12.85-30.68-26.03-45.34-39.89-50.93-55.05-90.62-122.15-112.95-192.06-15.24-47.73-20.54-98.67-19.09-149.22.32-11.01,7.35-93.93,13.52-96.03,17.45,7.58,38.28,14.95,54.09,25.12,8.57,5.52,41.54,38.82,44.54,38.41.78-.11,9.51-10.34,11.14-10.34s20.03,17.9,23.07,20.68Z"/>
                    <path class="cls-28" d="M397.71,463.27c-56-52.92-96.87-118.68-112.95-192.06,22.33,69.91,62.02,137.01,112.95,192.06Z"/>
                    <path class="cls-28" d="M379.42,92.45c34.58,40.92,72.86,81.06,90.68,131.49l-90.68-131.49Z"/>
                  </g>
                </g>
              </g>
              <g>
                <path class="cls-45" d="M739.74,1203.44c-32.85-4.77-52.01,19.92-76.36,28.07-21.7,7.26-42.25,3.72-65.22,4.43-20.02-18.59-48.53-27.72-76.36-29.55-.22-23.11-19.14-104.41-9.55-121.88,4.99-9.09,56.49-9.14,69.2-9.6,31.11-1.15,67.55-1.21,98.63,0,10.19.4,55.92,1.8,62.04,4.43,8.65,3.72,8.62,18.31,8.75,25.85.53,31.21-10.3,66.7-11.14,98.25Z"/>
                <path class="cls-45" d="M752.47,1027.63c-.68,18.44-1.23,47.82,23.07,54.66,29.52,8.31,50.7-17.84,57.27-41.37,3.62,3.94,4.84,8.91,7.16,13.3-16.2,49.69-20.76,104.58-46.13,150.69-5.95-.68-33.48-.83-35-3.69.52-28.66,23.31-123.22-15.11-135.18-18.21-5.67-94.59-5.98-117.72-5.91-18.6.05-100.76,1.67-112.95,7.39-33.2,15.56-11.8,107.64-10.34,136.66-.49,2.16-27.74.24-33.41,2.22-9.24-5.81-14.21-23.33-17.5-33.24-12.9-38.93-18.27-80.14-31.82-118.93,2.37-4.42,4.78-8.86,7.16-13.3,7.12,27.39,42.97,59.45,70.79,33.24,14.22-13.4,10.04-29.28,7.95-45.06l246.58-1.48Z"/>
                <path class="cls-28" d="M404.07,1156.16c-35.29-18.36-75.62-27-116.13-20.68-15.41,2.4-20.32,5.82-30.23,17.73l-28.64,19.21c8.67-22.99,33.15-51.5,46.13-74.61,16.54-29.42,77.21-160.01,97.84-170.64,2.45-1.26,30.34-9.6,31.82-8.86,5.25,22.26,7.16,45.82,10.34,68.7.94,6.73,8.35,28.01,7.95,32.5-.15,1.73-16.44,30.47-18.29,30.29l-18.29-34.72c.77,37.19,25.79,83.96,25.45,119.67-.12,12.86-3.38,11.72-7.95,21.42Z"/>
                <path class="cls-28" d="M517.02,897.62c.4,6.86,7.62,12.51,11.14,17.73,16.48,24.47,21.58,40.73,53.29,53.19,57.99,22.77,123.93-.38,150.33-53.19,4.31-4.6,9.75-11.66,11.14-17.73,7.02.08,12.94-1.48,19.09-1.48,11.67,19.68-18.47,46.36-28.64,64.27l42.95-36.2c-5.11,28.04-11.74,56.78-19.89,84.21h-252.94c-7.06-27.31-14.11-55.21-19.89-82.73l42.95,34.72c-11.07-18.23-39.52-42.18-28.64-64.27,6.46.35,12.47,1.37,19.09,1.48Z"/>
                <path class="cls-11" d="M397.71,1166.5c-2.53,3.71-1.26,10.44-8.75,10.34-2-.03-28.58-13.32-35-14.77-20.05-4.56-49.18-4.68-56.47,13.3l-.8,2.95c51.48-10.41,93.65,24.11,135.22,45.8,3.2,1.67,12.25,6.6,15.91,4.43,4.41,4.76-6.5,5.39-9.55,7.39-10.43,6.85-23.51,21.35-27.84,32.5-55.27-15.61-132.58-10.74-159.08-67.96,1.61-17.9,16.19-49.85,36.59-54.66,30.97-7.31,81.85,6.82,109.77,20.68Z"/>
                <path class="cls-11" d="M537.7,591.8c6.86,28.97,4.66,56.65,0,85.69-6.33.68-4.36-1.14-4.77-5.17-2.94-28.8-8.98-66.83-28.64-90.12-37.3-44.19-71.79-4.98-73.18,36.2-8.18,22.88-9.86,50-6.36,73.87-.35,1.26.21,3.04,0,4.43-4.32,1.39-12.23,3.43-11.93,10.34,2,2.08,44.38,1.83,52.5,2.95,19.3,2.68,80.74,21.4,80.34,42.84-54.84-14.56-113.33-14.43-169.42-5.91-13,1.97-25.97,7.17-38.98,8.86,7.06-17.88,24.45-32.98,38.98-45.8,2.67-2.36,17.63-9.96,18.29-11.08,3.03-5.09,3-41.98,4.77-51.71,5.94-32.6,16.85-62.34,35-90.86,42.48-37.68,84.4-4.69,103.4,35.46Z"/>
                <path class="cls-25" d="M902.01,811.93c-.69,3.91.11,8.16-2.39,11.82l-11.14-8.86c-9.94,25.25-33.76,41.47-59.66,50.23-19.62,6.64-56.57,14.95-77.16,16.25-12.79.81-46.93,3.58-50.11-8.86-29.33,33-71.2,49.48-113.75,25.12-6.47-3.7-19.15-18.59-24.66-19.21-4.13-.46-13.08,2.99-16.7,2.95-62.66-.55-137.8-8.26-172.61-63.53l-13.52,7.39c-1.59-1.17-.63-7.94-.8-10.34-1.15-17.14,1.39-25.89,19.89-32.5,15.11,48.4,69.54,76.08,120.9,79.78,13.56.98,50.85-4.15,57.27-2.95,5.9,1.09,29.72,26.59,42.95,31.03,18.83,6.31,49.01,5.89,66.82-2.95,9.05-4.49,27.46-26.75,35-28.07,2.6-.45,14.6,2.96,17.5,2.95,70.56-.2,134.62-10.16,160.68-79.78,16.28,5.43,20.41,14.52,21.48,29.55Z"/>
                <path class="cls-28" d="M922.69,755.79c-10.54-24.83-33.77-44.14-57.27-58.36-1.58-44.69-10.57-101.78-38.18-139.61-4.08-5.59-7.42-8.82-12.73-13.3l4.77-.74c-85.12-107.95-300.38-107.65-380.21,5.17-1.72,2.44-3.18,4.89-4.77,7.39-18.15,28.52-29.06,58.25-35,90.86-1.77,9.73-1.75,46.62-4.77,51.71-.66,1.12-15.62,8.72-18.29,11.08-14.53,12.82-31.92,27.92-38.98,45.8-1.71.22-3.84,3.09-6.36.74.35-18.47,56.68-61.03,58.86-67.96,3.53-11.25,1.92-40.11,4.77-54.66,24.04-122.49,111.34-187.29,245.79-183.93,139.44,3.48,207.14,80.14,228.29,201.66,1.64,9.42-.45,30.44,1.59,36.93,1.82,5.8,55.94,47.29,58.86,66.48l-.8,3.69c-1.02-.59-5.25-2.89-5.57-2.95Z"/>
                <path class="cls-10" d="M410.44,1268.44c-.74,1.91-2.87,9.83-3.18,11.82-.28,1.74-1.62,8.42-1.59,8.86.69-4.45-4.25-2.86-7.16-2.95-69.9-2.19-155.31,4.95-147.15-85.69,26.5,57.22,103.82,52.35,159.08,67.96Z"/>
                <path class="cls-48" d="M720.65,897.62c-41.26,68.24-139.05,66.51-181.36,0,7.63.23,20.94-2.51,26.25-1.48,2.45.48,23.59,17.62,33.41,20.68,23.68,7.39,50.78,6.17,73.18-4.43,5.96-2.82,22.37-17.41,23.86-17.73,1.21-.26,18.86,3.04,24.66,2.95Z"/>
                <path class="cls-25" d="M539.3,897.62c42.31,66.51,140.1,68.24,181.36,0,7.39-.11,14.88-.08,22.27,0-1.39,6.07-6.83,13.13-11.14,17.73-16.16,17.27-40.73,33.3-63.63,41.37-33.75,9.34-61.51,4.81-93.86-5.91-18.51-9.48-30.95-22.32-46.13-35.46-3.51-5.22-10.74-10.87-11.14-17.73,7.39.12,14.89-.23,22.27,0Z"/>
                <path class="cls-33" d="M469.3,1206.39c-8.36,2.92-7.95,10.07-8.75,10.34-1.31.44-22.95-12.32-23.86-13.3-7.13-7.68-8.26-56.7-10.34-70.18-2.15-13.88-14.16-61.42-12.73-70.91.37-2.45,5.87-7.21,6.36-8.13,13.54,38.78,18.91,80,31.82,118.93,3.29,9.91,8.26,27.43,17.5,33.24Z"/>
                <path class="cls-33" d="M793.83,1204.92c25.38-46.11,29.93-101,46.13-150.69.21.4,6.16,5.69,6.36,6.65,2.42,11.19-8.95,54.75-11.14,69.44-3.42,22.94-5.58,46.36-7.95,69.44-15.4,17.16-20.27,6.67-33.41,5.17Z"/>
                <path class="cls-28" d="M739.74,1203.44c.84-31.55,11.66-67.04,11.14-98.25-.13-7.55-.1-22.14-8.75-25.85-6.12-2.63-51.86-4.04-62.04-4.43-31.08-1.21-67.53-1.15-98.63,0-12.71.47-64.21.51-69.2,9.6-9.59,17.47,9.33,98.78,9.55,121.88l-3.18-.74c-1.61-32.72-12.31-69.64-12.73-101.94-.22-16.71-.97-29.73,19.89-33.24,34.31-5.78,174.61-5.86,208.4,0,16.23,2.82,21.28,11.11,21.48,25.85.26,20.32-6.83,72.19-11.14,93.08-.56,2.71-2.62,12.98-4.77,14.04Z"/>
                <path class="cls-28" d="M752.47,1027.63l-246.58,1.48c-.34-2.54-3.58-6.83-.8-10.34,82.69-4.77,165.49-5.56,248.17,0,6.65,4.94-.78,8.33-.8,8.86Z"/>
                <path class="cls-33" d="M663.38,1231.51c-9.41,13.17-16.57,25.79-11.14,42.11-13.22,1.46-22.88,8.72-36.59,4.43,3.73-17.39-4.53-30.06-17.5-42.11,22.97-.72,43.53,2.83,65.22-4.43Z"/>
                <path class="cls-26" d="M404.07,1156.16c-1.93,4.09-3.87,6.68-6.36,10.34-27.92-13.87-78.8-28-109.77-20.68v-10.34c40.51-6.32,80.84,2.32,116.13,20.68Z"/>
                <path class="cls-26" d="M779.51,896.14l1.59,1.48c1.37,2.62-3.95,22.09-4.77,26.59l-42.95,36.2c10.16-17.9,40.3-44.59,28.64-64.27,5.82,0,11.68,0,17.5,0Z"/>
                <path class="cls-26" d="M497.93,896.14c-10.89,22.08,17.56,46.04,28.64,64.27l-42.95-34.72c-.95-4.53-5.16-25.46-4.77-28.07.02-.16,2.48-1.26,3.18-1.48,5.26.17,10.66-.28,15.91,0Z"/>
                <path class="cls-28" d="M563.16,878.42c2.03,4.9-7.77,5.65-10.34,5.91-58.23,5.95-153.62-11.18-178.97-66.48,34.81,55.27,109.95,62.98,172.61,63.53,3.62.03,12.58-3.42,16.7-2.95Z"/>
                <path class="cls-11" d="M372.26,751.36v26.59c-1.39.44-5.91,3.71-7.95,4.43-5.4,1.91-10.59,3.97-15.91,5.91-.7-12.38,2.64-25.64,11.14-35.46,3.36-.79,9.17-.83,12.73-1.48Z"/>
                <path class="cls-25" d="M902.01,754.31c7.93,7.63,8.4,23.43,11.14,33.98-7.69-2.37-14.71-6.32-22.27-8.86l-1.59-28.07c4.46.85,8.36,1.85,12.73,2.95Z"/>
                <path class="cls-28" d="M348.39,788.29c-.3.11-1.78,4.37-5.57,2.95l6.36-32.5-26.25,36.2c5.2-33.9,1.64-33.86,36.59-42.11-8.5,9.82-11.83,23.08-11.14,35.46Z"/>
                <path class="cls-28" d="M913.14,788.29c-2.74-10.55-3.2-26.35-11.14-33.98,5.08,1.29,23.08,3.81,26.25,5.91,7.32,4.83,5.64,24.65,8.75,33.24l-24.66-33.24c-.88,6.72,5.37,16.07,5.57,22.9.07,2.46-.05,4.93,0,7.39-2.8,2.69-4.52-2.14-4.77-2.22Z"/>
                <path class="cls-28" d="M828.83,865.12c-37.04,21.25-85.81,20.7-128.06,17.73l.8-10.34c3.18,12.44,37.32,9.67,50.11,8.86,20.59-1.3,57.53-9.61,77.16-16.25Z"/>
                <path class="cls-47" d="M240.22,1185.71c-4.26.76-16.21,12.32-17.5,14.77,1.16-9.21,3.08-19.37,6.36-28.07l28.64-19.21c-6.11,7.35-14.72,23.43-17.5,32.5Z"/>
                <path class="cls-28" d="M240.22,1185.71c-3.89,12.69-4.91,23.83-5.57,36.93-11.07-4.43-17.85-10.88-11.93-22.16,1.29-2.46,13.24-14.01,17.5-14.77Z"/>
                <path class="cls-11" d="M701.56,1293.56c-4.95,5.91-4.64,17.54-18.29,10.34-9.21-4.85-4.41-18.18-.8-25.12,2.9,9.25,7.02,18.58,19.09,14.77Z"/>
                <path class="cls-28" d="M414.41,1165.03c.82,4.7,7.96,28.52,3.18,29.55-19.26-12.08-15.08-13.57-3.18-29.55Z"/>
                <g>
                  <path class="cls-28" d="M489.98,1230.03c30.43,2.21,72.3-5.56,92.27,21.42,2.19,2.96,11.98,20.34,4.77,22.9-8.24-2.19-17.74-7.07-24.66-11.82-3.07,1.31,4.56,10.06,5.57,11.82,4.49,11.28,3.33,21.12-11.14,25.12-3.99-4.6-11.25-13.96-17.5-15.51,12.61,10.52,20.99,56.35-5.57,50.97-2.18-1.96-4.1-1.26-5.57-4.43,4.3-1.46,8.29,4.54,13.52,2.95,1.52-.46,10.33-13.18,6.36-16.25-1.29-1-13.46,13.63-19.09-1.48,1,2.26-.79,7.02-.8,7.39l-9.55-18.47c1.7,9.76,3.5,23.86,0,33.24l-3.18-5.17c-22.57,14.79-16.28-6.55-19.09-14.77-6.32-18.52-73.83-26.65-89.09-37.67.31-1.99,2.44-9.91,3.18-11.82,4.33-11.16,17.41-25.65,27.84-32.5,3.05-2,13.95-2.63,9.55-7.39-3.66,2.17-12.71-2.76-15.91-4.43-41.57-21.69-83.75-56.21-135.22-45.8l.8-2.95c27.83-14.34,57.83-.27,83.52,11.82,47.87,22.53,48.7,38.47,108.97,42.84Z"/>
                  <path class="cls-11" d="M518.61,1337.88c-5.02,13.47-33.92,9.46-36.59,5.17-3.1-4.98,6.51-8.32-3.98-16.99-19.8-16.36-70.41-9.14-72.38-36.93-.03-.45,1.31-7.12,1.59-8.86,15.26,11.03,82.77,19.16,89.09,37.67,2.81,8.22-3.48,29.56,19.09,14.77l3.18,5.17Z"/>
                  <path class="cls-11" d="M590.2,1249.24c11.14,10.41,23.56,32.22-3.18,25.12,7.21-2.56-2.59-19.94-4.77-22.9-19.97-26.98-61.84-19.21-92.27-21.42v-1.48c11.96,2.71,44.05-3.93,62.84,0,8.05,1.68,31.4,15.1,37.38,20.68Z"/>
                  <path class="cls-28" d="M590.2,1249.24c-5.98-5.59-29.34-19-37.38-20.68-18.79-3.93-50.88,2.71-62.84,0-.85-.19-8.46-7.78-13.52-8.86,44-.33,83.84-6.58,113.75,29.55Z"/>
                  <path class="cls-11" d="M556.8,1299.47c14.47-3.99,15.62-13.83,11.14-25.12,4.81,8.37,17.66,26.96,3.98,33.98-13.84,7.1-12.56-5.92-15.11-8.86Z"/>
                  <path class="cls-11" d="M528.16,1330.49c-.45-.96-.02-5.55,0-7.39,0-.37,1.8-5.13.8-7.39,5.63,15.11,17.8.47,19.09,1.48,3.96,3.07-4.85,15.79-6.36,16.25-5.23,1.58-9.22-4.42-13.52-2.95Z"/>
                </g>
                <path class="cls-7" d="M847.12,1166.5c9.32,12.76,6.71,21.2-6.36,29.55l6.36-29.55Z"/>
                <g>
                  <path class="cls-8" d="M556.8,1334.93c1.12-1.35,1.76-8.72,3.98-10.34.7-.51,11.8-2.23,16.7-5.91,13.78,5.12-17.43,10.85-20.68,16.25Z"/>
                  <path class="cls-34" d="M668.15,1290.6l-16.7-4.43,5.57-5.91c5.61,2.29,9.91,5.49,11.14,10.34Z"/>
                </g>
                <path class="cls-28" d="M1022.91,1240.37c.09-.5-3.91-6.52,1.59-8.86.27,2.7,7.49,4.48-1.59,8.86Z"/>
                <path class="cls-28" d="M236.24,1232.99c.41.01,3.96,6.2,1.59,7.39-3.86,1.93-5.44-7.52-1.59-7.39Z"/>
                <path class="cls-16" d="M781.1,897.62l-1.59-1.48c1.6-3.83,5.53.46,1.59,1.48Z"/>
                <path class="cls-35" d="M482.03,896.14c-.7.22-3.16,1.31-3.18,1.48.4-5.97,2.87-1.49,3.18-1.48Z"/>
                <path class="cls-20" d="M742.92,637.6c.13.62,7.36,10.02,7.95,10.34-27.01,32.91,35.11,60.19,28.64,16.25l21.48-5.91,5.57,17.73c-.45,4.16-3.92,10.09-3.18,14.77-13.59,1.61-28,10.18-39.77,16.25-4.33,2.23-5.53,3.72-11.14,5.91-4.77-4.07-16.35-14.56-19.09-19.21-.05-.09-.59.48-1.59-1.48-4.04-7.92-3.41-32.73-1.59-42.11,1.56-8.06,2.24-6.03,6.36-9.6,2.14-1.85,2.41-3.93,6.36-2.95Z"/>
                <path class="cls-1" d="M833.6,637.6c.6,3.11,2.93,8.72,3.18,11.08,1.07,9.86,1.49,42.24-4.77,46.54v-2.95c0-11.28,2.91-22.98,1.59-34.72-2.83-25.12-35.76-94.04-68.41-54.66,2.57,3.1,5.78,1.76,9.55,3.69-11.55,2.86-18.81-3.23-20.68,11.82-8.35.87-12.56,12.51-11.14,19.21-3.96-.98-4.23,1.1-6.36,2.95,2.08-10.76,5.83-25.89,11.14-35.46,5.58-10.06,23.38-28.29,35.79-29.55,29.96-3.03,45.97,40.7,50.11,62.05Z"/>
                <path class="cls-10" d="M537.7,677.49c-.6,3.75-8.21,28.56-5.57,29.55,2.63-1.06,1.94-3.71,2.39-4.43l7.95-2.95c-1.97,1.53-13.3,13.99-15.11,13.3l.8-19.21c-2.89-1.14-4.29,3.95-6.36,5.91,4.22-11.29,8.57-19.07,6.36-31.03-1.03-17.08-4.24-43.05-14.32-57.62-23.05-52.64-64.79-42.76-82.72,7.39,1.39-41.18,35.88-80.39,73.18-36.2,19.66,23.29,25.69,61.32,28.64,90.12.41,4.04-1.56,5.85,4.77,5.17Z"/>
                <path class="cls-10" d="M833.6,637.6c-4.15-21.35-20.15-65.08-50.11-62.05-12.41,1.25-30.21,19.48-35.79,29.55-6.1.39,3.99-15.88,4.77-16.99,40.89-57.91,72.59-8.47,82.72,35.46.55,2.37,3.81,14.78-1.59,14.04Z"/>
                <path class="cls-1" d="M532.93,572.6c.66,6.64,3.23,12.7,4.77,19.21-19.01-40.15-60.93-73.14-103.4-35.46,1.59-2.5,3.05-4.95,4.77-7.39,39.03-37.8,73.32-16.73,93.86,23.64Z"/>
                <path class="cls-28" d="M534.52,702.61c-.45.72.24,3.37-2.39,4.43-2.64-.99,4.97-25.8,5.57-29.55,4.66-29.04,6.86-56.72,0-85.69-1.54-6.51-4.11-12.56-4.77-19.21,16.25,31.94,21.06,98.52,1.59,130.01Z"/>
                <g>
                  <path class="cls-11" d="M814.51,544.53c-47.45-40.02-79.08,4.83-92.27,46.54,22.14-40.93,60.39-73.38,105-33.24,27.61,37.84,36.6,94.92,38.18,139.61,23.5,14.22,46.73,33.53,57.27,58.36-59.72-11.41-100-18.96-162.27-11.82-16.18,1.86-31.98,5.12-47.73,8.86.64-20.93,64.19-39.87,83.52-42.84,15.75-2.43,32-.2,47.73-2.95,0-2.39-12.7-10.06-13.52-10.34,1.82.26,1.5-1.42,1.59-1.48,6.26-4.3,5.84-36.68,4.77-46.54-.26-2.36-2.58-7.97-3.18-11.08,5.4.75,2.14-11.66,1.59-14.04-10.14-43.93-41.84-93.37-82.72-35.46-.78,1.11-10.87,17.38-4.77,16.99-5.31,9.57-9.05,24.7-11.14,35.46-4.12,3.58-4.8,1.55-6.36,9.6-1.82,9.38-2.45,34.18,1.59,42.11l.8,20.68c-52.14-54.71-129.63-60.29-190.11-13.3l-7.95,2.95c19.47-31.49,14.66-98.06-1.59-130.01-20.54-40.37-54.83-61.43-93.86-23.64,79.83-112.82,295.1-113.12,380.21-5.17l-4.77.74Z"/>
                  <path class="cls-39" d="M760.42,743.97v2.95c-16.94,1.79-33.2,5.68-49.32,8.13l1.59-2.22c15.75-3.74,31.54-7.01,47.73-8.86Z"/>
                  <path class="cls-1" d="M814.51,544.53c5.31,4.47,8.65,7.71,12.73,13.3-44.61-40.14-82.86-7.68-105,33.24,13.19-41.7,44.82-86.56,92.27-46.54Z"/>
                  <path class="cls-28" d="M719.86,594.76c1.05,20.41-4.24,40.65-2.39,61.31,1.45,16.1,10.98,30.66,8.75,46.54-17.24-33.55-17.69-72.44-6.36-107.85Z"/>
                </g>
                <path class="cls-20" d="M528.16,668.63c2.21,11.95-2.15,19.74-6.36,31.03-4.69,4.42-8.46,9.94-14.32,13.3-6.34-2-7.25-4-11.14-5.91-11.71-5.75-26.41-14.49-39.77-16.25-1.76-10.24-3.69-18.94-3.18-29.55,2.3,11.12,18.25,4.34,27.04,4.43-.59,6.62.65,13,6.36,17.73,14.83,12.28,28.52-5.24,28.64-19.21l10.34-5.91c.2,3.43,1.8,7.15,2.39,10.34Z"/>
                <path class="cls-25" d="M625.2,803.07c-3.25,8.11-9.42,14.31-19.09,17.73-27.03,9.54-66.12-15.6-84.31-36.93,1.84-4.78,2.98-3.71,6.36-5.91,26.13,23.16,65.08,57.54,95.45,18.47l1.59,6.65Z"/>
                <path class="cls-1" d="M644.29,814.89c4.12,2.3,9.23,2.65,12.73,5.91-9.16-.05-17.91-1.4-27.04-1.48-.53,0-1.06,0-1.59,0-7.61.03-14.73,1.2-22.27,1.48,9.67-3.41,15.84-9.62,19.09-17.73.07-.17,2.76-.88,3.18-2.22l2.39-16.99c2,16.71-3.52,21.49,13.52,31.03Z"/>
                <path class="cls-26" d="M574.29,950.81c34.7,17.78,56.92,18.92,93.86,5.91,22.91-8.07,47.47-24.1,63.63-41.37-26.4,52.81-92.35,75.96-150.33,53.19-31.72-12.45-36.81-28.72-53.29-53.19,15.18,13.14,27.63,25.97,46.13,35.46Z"/>
                <path class="cls-1" d="M513.84,611.01c-9.2-13.3-7.54-2.77-11.93-2.95-.9-.04-6.27-3.32-8.75-2.95.94-8.59-15.84-15.64-23.07-14.77-26.39,3.15-51.64,75.63-42.16,97.51-.91.16-3.11,4.17-3.18,4.43-3.5-23.87-1.82-50.99,6.36-73.87,17.93-50.15,59.67-60.02,82.72-7.39Z"/>
                <path class="cls-28" d="M668.15,956.72c-36.94,13.01-59.16,11.87-93.86-5.91,32.35,10.72,60.11,15.25,93.86,5.91Z"/>
                <path class="cls-28" d="M629.97,840c-.5-3.78,3.86-14.55,0-20.68,9.13.07,17.88,1.43,27.04,1.48,8.03.04,16.98,2.7,24.66,1.48,15.35-2.44,42.7-25.84,54.88-35.46,2.48,13.21-42.29,37.83-56.47,39.89-4.7.68-15.13-3.16-15.91-2.95-4.68,1.21-13.43,31.51-30.23,25.12-1.68-.74-3.77-7.26-3.98-8.86Z"/>
                <path class="cls-28" d="M832.01,692.26c-9.41.66-19.1-2.61-28.64-1.48-.74-4.69,2.74-10.61,3.18-14.77,2.9-27.12-5.42-55.9-31.82-69.44-3.76-1.93-6.98-.6-9.55-3.69,32.64-39.37,65.58,29.54,68.41,54.66,1.32,11.74-1.59,23.44-1.59,34.72Z"/>
                <path class="cls-43" d="M774.74,606.58c26.4,13.54,34.72,42.32,31.82,69.44l-5.57-17.73-21.48,5.91c-1.58-10.72-9.31-10.94-14.32-19.21,7.77-9.61,2.48-28.01-11.14-26.59,1.87-15.05,9.13-8.96,20.68-11.82Z"/>
                <path class="cls-28" d="M754.06,618.4c13.61-1.42,18.91,16.98,11.14,26.59-.18.22-3.53,1.23-3.18,2.95-.38-.21-1.14.19-1.59,0s-6.09,1.87-9.55,0c-.6-.32-7.82-9.72-7.95-10.34-1.43-6.7,2.78-18.34,11.14-19.21Z"/>
                <path class="cls-43" d="M513.84,611.01c10.08,14.57,13.29,40.53,14.32,57.62-.59-3.19-2.18-6.91-2.39-10.34l-10.34,5.91c.07-7.94-2.06-9.76-6.36-16.25,13.35-7.35,8.27-33.84-8.75-29.55-10.53,2.66-12.14,24.13-2.39,29.55-1.66-.2-1.3.7-1.59,1.48-9.55-.01-15.23,8.6-15.91,16.25-8.79-.09-24.75,6.69-27.04-4.43,1.11-23.02,12.16-52.05,39.77-56.14,2.48-.37,7.85,2.92,8.75,2.95,4.39.18,2.73-10.34,11.93,2.95Z"/>
                <path class="cls-28" d="M606.11,820.8c7.54-.28,14.66-1.44,22.27-1.48-.87,6.23,1.21,14.86,0,20.68-1.38,6.65-3.61,9.55-11.93,8.86-12.33-1.02-16.47-24.26-19.09-25.12-.84-.27-12.99,3.48-17.5,2.95-7.69-.89-17.81-5.39-24.66-8.86-8.28-4.2-36.72-25.38-33.41-33.98,18.2,21.33,57.28,46.47,84.31,36.93Z"/>
                <path class="cls-38" d="M629.97,840h-1.59c1.21-5.82-.87-14.45,0-20.68.53,0,1.06,0,1.59,0,3.86,6.13-.5,16.9,0,20.68Z"/>
                <g>
                  <path class="cls-40" d="M765.2,782.39v2.95c-4.68-.48-10.27-2.53-15.11-2.95-22.04,16.82-78.94,88.89-103.4,93.08-48.02,8.21-67.19-27.27-96.25-54.66l4.77-2.95c6.85,3.48,16.96,7.97,24.66,8.86,4.51.52,16.66-3.23,17.5-2.95,2.62.85,6.76,24.1,19.09,25.12,8.32.69,10.55-2.22,11.93-8.86h1.59c.21,1.61,2.3,8.12,3.98,8.86,16.8,6.39,25.55-23.91,30.23-25.12.78-.2,11.21,3.64,15.91,2.95,14.19-2.06,58.96-26.68,56.47-39.89-.48-2.55-3.32-8.41-4.77-10.34,11.18,1.63,22.3,3.9,33.41,5.91Z"/>
                  <path class="cls-23" d="M602.13,856.25c4.09-1.66,58.95-2.03,58.07,5.17-1.49,12.16-37.5,7.75-46.93,6.65-1.08-.13-.54,3.16-1.59,2.95-1.7-.34-11.82-8.65-11.93-9.6-.44-1.95.39-4.36,2.39-5.17Z"/>
                  <polygon class="cls-12" points="603.72 848.87 606.11 849.61 603.72 851.82 602.93 851.08 603.72 848.87"/>
                </g>
                <path class="cls-28" d="M493.16,605.1c-27.61,4.09-38.66,33.12-39.77,56.14-.51,10.61,1.42,19.31,3.18,29.55-8.93-1.17-18.87.82-27.84,1.48-1.66-.93-.31-3.31-.8-4.43-9.48-21.88,15.77-94.36,42.16-97.51,7.23-.86,24,6.18,23.07,14.77Z"/>
                <path class="cls-31" d="M509.07,647.94c4.31,6.49,6.43,8.31,6.36,16.25-.12,13.97-13.81,31.48-28.64,19.21,5.82-5.09-2.3-15.59,4.77-16.25-.23,3.31-1.07,7.02,0,10.34,3.58,11.09,5.52,6.71,9.55,0,4.57-7.62,6.78-19.67,3.18-28.07.25-.01,4.56-1.36,4.77-1.48Z"/>
                <path class="cls-1" d="M496.34,649.42c-2.95,7.86-4.14,8.47-4.77,17.73-7.08.66,1.04,11.16-4.77,16.25-5.71-4.73-6.95-11.1-6.36-17.73.68-7.65,6.36-16.26,15.91-16.25Z"/>
                <g>
                  <path class="cls-28" d="M731.79,692.26c1,1.95,1.54,1.39,1.59,1.48-2.5,5.01,13.09,23.5,15.11,23.64,1.06.07,3.69-4.32,3.98-4.43,5.61-2.19,6.8-3.68,11.14-5.91,20.58-7.25,44.8-18,66.82-10.34.82.29,13.52,7.96,13.52,10.34-15.73,2.76-31.97.53-47.73,2.95-19.33,2.98-82.87,21.92-83.52,42.84l-1.59,2.22c16.11-2.45,32.37-6.34,49.32-8.13,44.72-4.72,84.82-3.96,128.86,4.43l1.59,28.07c-45.37-15.25-87.05-18.68-135.22-17.73-16.9.33-33.39,2.38-50.11,2.95-6.03,9.13,5.71,1.53,9.55,2.95.89.33,11,11.29,13.52,12.56-28.17,24.72-58.36,52.42-93.06,16.99-4.45,9.23,5.98,11.06,8.75,17.73-17.04-9.54-11.52-14.31-13.52-31.03l-2.39,16.99c-.42,1.34-3.11,2.04-3.18,2.22l-1.59-6.65c-30.38,39.07-69.32,4.7-95.45-18.47.72-.47,2.39-1.02,3.18-1.48.89-.51,2.28-.97,3.18-1.48,1.21-.68,6.89-.48,6.36-3.69-.92-2.28-7.55,2.11-7.95,2.22-2.21.56-1.48,1.45-1.59,1.48-12.36,3.08-25.69,4.64-38.18,7.39-23.79,5.23-48.39,8.49-70,19.94l70-16.99c4.1-1.01,14.75-3.81,18.29-2.95,2.75.66,33.43,33.19,38.98,38.41,29.05,27.39,48.23,62.87,96.25,54.66,24.47-4.18,81.36-76.26,103.4-93.08,4.85.42,10.43,2.47,15.11,2.95,24.64,2.53,46.74,9.84,70,16.99-20.74-12.66-46.12-15.62-70-19.94-11.11-2.01-22.23-4.28-33.41-5.91-2.41-3.2-10.36-6.32-10.34-10.34,11.33.05,23.01-2.57,34.2-2.95,34.95-1.22,95.78,3.89,128.06,16.25,22.6,8.65,22.41,9.07,18.29,32.5-1.07-15.03-5.2-24.11-21.48-29.55-26.05,69.62-90.11,79.58-160.68,79.78-2.9,0-14.9-3.41-17.5-2.95-7.54,1.32-25.95,23.58-35,28.07-17.81,8.84-47.98,9.26-66.82,2.95-13.23-4.43-37.05-29.93-42.95-31.03-6.42-1.19-43.71,3.93-57.27,2.95-51.36-3.7-105.79-31.38-120.9-79.78-18.5,6.62-21.04,15.36-19.89,32.5-5.57-13.81-7.63-24.12,6.36-31.03,36.76-18.13,108.48-20.89,149.54-19.21,12.36.51,24.29,2.11,36.59,2.22-9.19-4.41-25.16-4.7-36.59-5.17-47.28-1.94-98.36,2.05-143.18,16.25v-26.59c58.83-10.71,117.6-10.05,174.99,3.69l-1.59-2.22c.4-21.44-61.04-40.17-80.34-42.84-8.12-1.13-50.49-.87-52.5-2.95-.29-6.92,7.61-8.95,11.93-10.34,24.52-7.9,48.93,2.06,71.59,10.34,3.89,1.91,4.8,3.91,11.14,5.91.19.06,1.28,2.95,2.39,2.95,7.01.05,15.16-16.63,18.29-22.16l-.8,19.21c1.81.69,13.14-11.76,15.11-13.3,60.47-46.99,137.97-41.41,190.11,13.3l-.8-20.68Z"/>
                  <g>
                    <path class="cls-11" d="M755.65,761.7v1.48c-11.19.39-22.88,3.01-34.2,2.95-.01,4.02,7.93,7.14,10.34,10.34,1.46,1.93,4.29,7.79,4.77,10.34-12.19,9.62-39.53,33.01-54.88,35.46-7.68,1.22-16.63-1.43-24.66-1.48-3.5-3.25-8.61-3.6-12.73-5.91-2.77-6.67-13.2-8.5-8.75-17.73,34.7,35.43,64.9,7.73,93.06-16.99-2.52-1.27-12.63-12.23-13.52-12.56-3.84-1.43-15.58,6.17-9.55-2.95,16.72-.57,33.21-2.62,50.11-2.95Z"/>
                    <path class="cls-39" d="M515.43,761.7v2.95c-41.06-1.69-112.78,1.07-149.54,19.21l-1.59-1.48c2.05-.72,6.56-3.99,7.95-4.43,44.82-14.2,95.89-18.19,143.18-16.25Z"/>
                    <path class="cls-19" d="M832.01,692.26v2.95c-.09.06.23,1.74-1.59,1.48-22.02-7.66-46.24,3.09-66.82,10.34,11.78-6.07,26.18-14.64,39.77-16.25,9.54-1.13,19.22,2.14,28.64,1.48Z"/>
                    <path class="cls-19" d="M606.11,748.41c20.33,8.75,17.68,33.22,46.13-1.48,7.73-1.17,13.58-3.4,20.68,1.48,2,19.09-4.36,10.05-11.93,16.25-11.92,9.77-17.61,18.87-36.59,16.25-2.19-.3-36.24-19.68-37.38-21.42-3.62-5.5,1.09-10.38,1.59-12.56,6.68-3.54,11.67-1.03,17.5,1.48Z"/>
                    <path class="cls-30" d="M672.93,748.41c-7.1-4.88-12.95-2.65-20.68-1.48-4.3.65-11.03,4.19-13.52,4.43-13.35,1.3-20.74-3.74-32.61-2.95-5.82-2.51-10.82-5.02-17.5-1.48,7.5-32.49,81.08-29.33,84.31,1.48Z"/>
                    <path class="cls-11" d="M622.82,704.08c23.48-1.16,51.86,5.39,70.79,18.47.25,4.87-28.22-7.62-31.02-8.13-34.32-6.23-71.68-1.91-101.81,14.77,13.5-15.26,41.14-24.09,62.04-25.12Z"/>
                    <path class="cls-2" d="M531.34,775v1.48c-.79.45-2.46,1.01-3.18,1.48-3.39,2.2-4.53,1.13-6.36,5.91-3.31,8.6,25.12,29.78,33.41,33.98l-4.77,2.95c-5.54-5.23-36.23-37.75-38.98-38.41-3.55-.86-14.19,1.95-18.29,2.95v-2.95c12.49-2.75,25.82-4.31,38.18-7.39Z"/>
                    <path class="cls-19" d="M456.57,690.79c13.36,1.76,28.06,10.5,39.77,16.25-22.65-8.28-47.07-18.25-71.59-10.34.21-1.4-.35-3.18,0-4.43.07-.26,2.28-4.27,3.18-4.43.49,1.13-.86,3.5.8,4.43,8.97-.66,18.91-2.65,27.84-1.48Z"/>
                    <path class="cls-39" d="M765.2,785.34v-2.95c23.88,4.33,49.26,7.29,70,19.94-23.26-7.15-45.36-14.46-70-16.99Z"/>
                    <path class="cls-39" d="M493.16,782.39v2.95l-70,16.99c21.6-11.46,46.2-14.71,70-19.94Z"/>
                    <path class="cls-3" d="M752.47,712.95c-.29.11-2.92,4.5-3.98,4.43-2.03-.13-17.61-18.62-15.11-23.64,2.74,4.64,14.32,15.14,19.09,19.21Z"/>
                    <path class="cls-2" d="M528.16,693.74c-3.13,5.53-11.28,22.21-18.29,22.16-1.11,0-2.2-2.9-2.39-2.95,5.85-3.35,9.63-8.88,14.32-13.3,2.08-1.95,3.48-7.05,6.36-5.91Z"/>
                    <path class="cls-7" d="M515.43,764.66v-2.95c11.43.47,27.4.76,36.59,5.17-12.3-.11-24.23-1.71-36.59-2.22Z"/>
                    <path class="cls-5" d="M534.52,775l-1.59-1.48c.4-.1,7.03-4.5,7.95-2.22.53,3.21-5.16,3.02-6.36,3.69Z"/>
                    <path class="cls-9" d="M534.52,775c-.9.51-2.29.96-3.18,1.48v-1.48c.11-.03-.62-.91,1.59-1.48l1.59,1.48Z"/>
                    <path class="cls-39" d="M652.25,746.93c-28.46,34.7-25.81,10.23-46.13,1.48,11.87-.79,19.26,4.25,32.61,2.95,2.5-.24,9.23-3.78,13.52-4.43Z"/>
                  </g>
                </g>
                <g>
                  <path class="cls-28" d="M797.81,888.76c7.15.44,44.24,12.45,45.34,16.99-7.05,32.08-7.61,65.42-14.32,97.51-3.19,15.27-12.69,61.74-29.43,67.22-13.87,4.54-31.73,1.93-37.38-12.56,6.5-56.72,23.63-112.96,35.79-169.16Z"/>
                  <g>
                    <path class="cls-45" d="M814.51,1040.93c-9.23,1.86-13.5-11.17-20.68-11.82-6.91-.63-15.78,6.07-22.27,7.39,8.61-44.87,19.58-89.24,30.23-133.7,3.7-5.74,32.28,5.98,33.41,8.86,6.06,15.51-14.06,109.4-20.68,129.27Z"/>
                    <path class="cls-45" d="M814.51,1040.93c-4.11,12.33-6.53,28.28-24.66,29.55-13.67.96-22.74-6.84-23.07-19.21,6.62-6.59,12.75,12.29,15.11,13.3,5.37,2.29,10.09-1.82,13.52-2.95,18.54-6.12,11.96-21.59-1.59-32.5,7.18.65,11.45,13.68,20.68,11.82Z"/>
                    <path class="cls-6" d="M793.83,1029.11c13.55,10.91,20.13,26.38,1.59,32.5,6.8-1.68,9.92-13.98,7.95-19.21-.99-2.63-2.88-1.12-3.18-1.48-5.48-6.55-7.6-5.37-14.32-4.43-19.77,2.76-8.71,29.64,9.55,25.12-3.43,1.13-8.15,5.24-13.52,2.95-2.36-1.01-8.49-19.89-15.11-13.3-.19-7.16,3.91-10.28,4.77-14.77,6.49-1.31,15.36-8.01,22.27-7.39Z"/>
                    <path class="cls-28" d="M785.88,1036.5c-11.71,12.08,7.28,29.42,15.91,7.39.29-.75-.08-1.68,1.59-1.48,1.96,5.22-1.15,17.52-7.95,19.21-18.26,4.52-29.31-22.35-9.55-25.12Z"/>
                    <path class="cls-42" d="M800.19,1040.93l1.59,2.95c-8.63,22.03-27.61,4.7-15.91-7.39,6.72-.94,8.84-2.11,14.32,4.43Z"/>
                    <path class="cls-32" d="M803.38,1042.4c-1.68-.21-1.3.73-1.59,1.48l-1.59-2.95c.3.36,2.19-1.15,3.18,1.48Z"/>
                  </g>
                </g>
                <g>
                  <path class="cls-31" d="M779.51,664.19c6.48,43.94-55.64,16.66-28.64-16.25,3.46,1.87,9.11-.19,9.55,0-9.87,6.7-11.32,20.25-2.39,28.07,1.71-4.04,9.17-1.9,10.34-5.17.65-1.81-2.63-20.87-6.36-22.9-.35-1.72,3-2.73,3.18-2.95,5.01,8.27,12.74,8.48,14.32,19.21Z"/>
                  <path class="cls-15" d="M760.42,647.94c.45.19,1.21-.21,1.59,0,3.73,2.03,7.01,21.09,6.36,22.9-1.17,3.27-8.63,1.13-10.34,5.17-8.93-7.82-7.48-21.37,2.39-28.07Z"/>
                  <path class="cls-28" d="M762.81,674.54c3.99-.46,8.34,6.73,3.18,8.86-8.15,3.37-8.8-8.21-3.18-8.86Z"/>
                </g>
                <path class="cls-28" d="M509.07,647.94c-.22.12-4.52,1.46-4.77,1.48-.9.05-5.92-1.23-6.36-1.48-9.75-5.41-8.15-26.89,2.39-29.55,17.02-4.29,22.1,22.19,8.75,29.55Z"/>
                <path class="cls-15" d="M504.3,649.42c3.6,8.4,1.39,20.45-3.18,28.07-1.64.17-3.3-2.96-3.98-2.95-2.96.03-3.18,2.44-5.57,2.95-1.07-3.32-.23-7.03,0-10.34.64-9.26,1.83-9.87,4.77-17.73.29-.77-.07-1.68,1.59-1.48.45.25,5.47,1.53,6.36,1.48Z"/>
                <path class="cls-28" d="M501.12,677.49c-4.02,6.71-5.97,11.09-9.55,0,2.39-.51,2.61-2.92,5.57-2.95.68,0,2.34,3.13,3.98,2.95Z"/>
                <g>
                  <path class="cls-28" d="M458.96,888.76c1.74.06,4.41-.58,5.57.74l35,156.6c1.64,33.96-41.53,35.66-55.68,2.95-17.32-40.05-17.45-101.8-25.45-144.78.95-2.31,37.12-15.63,40.57-15.51Z"/>
                  <g>
                    <path class="cls-45" d="M488.39,1035.02h-4.77c-9.47-9.26-21.83-4.76-30.23,3.69-.47.47.41,3.27,0,3.69-.22.23-4.6-.32-6.36,1.48-14.88-39.9-18.58-90.25-23.86-132.23,8.25-3.37,31.74-16.49,36.59-5.91,11.31,24.67,23.26,99.45,28.64,129.27Z"/>
                    <path class="cls-33" d="M488.39,1035.02c2.07,11.47,11.96,32.92-10.34,35.46-19.68,2.24-25.99-13.12-31.02-26.59,1.77-1.79,6.14-1.25,6.36-1.48-.09,1.31,1.41,1.48,1.59,2.95,1.04,8.69,1.22,15.57,12.73,16.25,18.33,12.8,27.89-14.88,15.91-26.59h4.77Z"/>
                    <path class="cls-19" d="M483.62,1035.02c11.98,11.71,2.42,39.4-15.91,26.59,12.76.75,19.21-9.23,12.73-19.21-5.26-8.1-9.35-8.53-17.5-4.43-3.76,1.89-5.27,4.67-7.95,7.39-.18-1.48-1.68-1.65-1.59-2.95.41-.42-.47-3.22,0-3.69,8.39-8.45,20.76-12.95,30.23-3.69Z"/>
                    <path class="cls-28" d="M480.43,1042.4c6.49,9.98.03,19.96-12.73,19.21-11.51-.68-11.69-7.56-12.73-16.25,2.68-2.72,4.19-5.5,7.95-7.39-8.15,17.43,16.62,24.62,17.5,4.43Z"/>
                    <path class="cls-42" d="M480.43,1042.4c-.88,20.18-25.65,12.99-17.5-4.43,8.15-4.09,12.23-3.67,17.5,4.43Z"/>
                  </g>
                </g>
              </g>
            </g>
          </g>
        </g>
      </g>
    </g>
  </g>
</svg>